<?xml version="1.0" encoding="UTF-8" standalone="no"?>
<svg
   xmlns:dc="http://purl.org/dc/elements/1.1/"
   xmlns:cc="http://creativecommons.org/ns#"
   xmlns:rdf="http://www.w3.org/1999/02/22-rdf-syntax-ns#"
   xmlns:svg="http://www.w3.org/2000/svg"
   xmlns="http://www.w3.org/2000/svg"
   xmlns:sodipodi="http://sodipodi.sourceforge.net/DTD/sodipodi-0.dtd"
   xmlns:inkscape="http://www.inkscape.org/namespaces/inkscape"
   version="1.1"
   id="Capa_1"
   x="0px"
   y="0px"
   viewBox="0 0 448 448"
   xml:space="preserve"
   sodipodi:docname="03d.svg"
   width="448"
   height="448"
   inkscape:version="1.0.2 (e86c870879, 2021-01-15)"><metadata
   id="metadata2571"><rdf:RDF><cc:Work
       rdf:about=""><dc:format>image/svg+xml</dc:format><dc:type
         rdf:resource="http://purl.org/dc/dcmitype/StillImage" /><dc:title></dc:title></cc:Work></rdf:RDF></metadata><defs
   id="defs2569" /><sodipodi:namedview
   pagecolor="#ffffff"
   bordercolor="#666666"
   borderopacity="1"
   objecttolerance="10"
   gridtolerance="10"
   guidetolerance="10"
   inkscape:pageopacity="0"
   inkscape:pageshadow="2"
   inkscape:window-width="1886"
   inkscape:window-height="992"
   id="namedview2567"
   showgrid="false"
   fit-margin-top="0"
   fit-margin-left="0"
   fit-margin-right="0"
   fit-margin-bottom="0"
   inkscape:zoom="1.328125"
   inkscape:cx="224.82226"
   inkscape:cy="188.1368"
   inkscape:window-x="16"
   inkscape:window-y="43"
   inkscape:window-maximized="0"
   inkscape:current-layer="Capa_1" />


<g
   id="g2577"
   transform="translate(0,96)"><path
     style="fill:#f3f3f3"
     d="m 352,64 c -5.588,0 -11.031,0.578 -16.355,1.494 C 313.727,26.435 271.977,0 224,0 176.023,0 134.274,26.434 112.355,65.494 107.031,64.578 101.588,64 96,64 42.981,64 0,106.981 0,160 c 0,53.019 42.981,96 96,96 h 256 c 53.019,0 96,-42.981 96,-96 0,-53.019 -42.981,-96 -96,-96 z"
     id="path2532" /><path
     style="fill:#e1e1e1"
     d="m 352,64 c -5.586,0 -11.031,0.578 -16.355,1.494 -0.098,-0.177 -0.23,-0.332 -0.332,-0.509 10.57,18.62 16.687,40.1 16.687,63.041 C 352,198.704 294.703,256 224.027,256 H 352 c 53.019,0 96,-42.981 96,-96 0,-53.019 -42.981,-96 -96,-96 z"
     id="path2534" /></g>
<g
   id="g2536"
   transform="translate(0,-176)">
</g>
<g
   id="g2538"
   transform="translate(0,-176)">
</g>
<g
   id="g2540"
   transform="translate(0,-176)">
</g>
<g
   id="g2542"
   transform="translate(0,-176)">
</g>
<g
   id="g2544"
   transform="translate(0,-176)">
</g>
<g
   id="g2546"
   transform="translate(0,-176)">
</g>
<g
   id="g2548"
   transform="translate(0,-176)">
</g>
<g
   id="g2550"
   transform="translate(0,-176)">
</g>
<g
   id="g2552"
   transform="translate(0,-176)">
</g>
<g
   id="g2554"
   transform="translate(0,-176)">
</g>
<g
   id="g2556"
   transform="translate(0,-176)">
</g>
<g
   id="g2558"
   transform="translate(0,-176)">
</g>
<g
   id="g2560"
   transform="translate(0,-176)">
</g>
<g
   id="g2562"
   transform="translate(0,-176)">
</g>
<g
   id="g2564"
   transform="translate(0,-176)">
</g>
</svg>
