<?xml version="1.0" encoding="UTF-8" standalone="no"?>
<svg
   xmlns:dc="http://purl.org/dc/elements/1.1/"
   xmlns:cc="http://creativecommons.org/ns#"
   xmlns:rdf="http://www.w3.org/1999/02/22-rdf-syntax-ns#"
   xmlns:svg="http://www.w3.org/2000/svg"
   xmlns="http://www.w3.org/2000/svg"
   xmlns:sodipodi="http://sodipodi.sourceforge.net/DTD/sodipodi-0.dtd"
   xmlns:inkscape="http://www.inkscape.org/namespaces/inkscape"
   version="1.1"
   id="Capa_1"
   x="0px"
   y="0px"
   viewBox="0 0 472.1289 472.1289"
   xml:space="preserve"
   sodipodi:docname="04n.svg"
   width="472.12891"
   height="472.12891"
   inkscape:version="1.0.2 (e86c870879, 2021-01-15)"><metadata
   id="metadata1191"><rdf:RDF><cc:Work
       rdf:about=""><dc:format>image/svg+xml</dc:format><dc:type
         rdf:resource="http://purl.org/dc/dcmitype/StillImage" /><dc:title></dc:title></cc:Work></rdf:RDF></metadata><defs
   id="defs1189"><inkscape:path-effect
     effect="offset"
     id="path-effect1170"
     is_visible="true"
     lpeversion="1"
     linejoin_type="miter"
     unit="mm"
     offset="2.4"
     miter_limit="4"
     attempt_force_join="true"
     update_on_knot_move="true" /><inkscape:path-effect
     effect="offset"
     id="path-effect1164"
     is_visible="true"
     lpeversion="1"
     linejoin_type="miter"
     unit="mm"
     offset="2.4"
     miter_limit="4"
     attempt_force_join="true"
     update_on_knot_move="true" /><inkscape:path-effect
     effect="offset"
     id="path-effect1151"
     is_visible="true"
     lpeversion="1"
     linejoin_type="miter"
     unit="mm"
     offset="2.4"
     miter_limit="4"
     attempt_force_join="true"
     update_on_knot_move="true" /><inkscape:path-effect
     effect="offset"
     id="path-effect1351"
     is_visible="true"
     lpeversion="1"
     linejoin_type="miter"
     unit="mm"
     offset="2.4"
     miter_limit="4"
     attempt_force_join="true"
     update_on_knot_move="true" /><inkscape:path-effect
     effect="offset"
     id="path-effect1204"
     is_visible="true"
     lpeversion="1"
     linejoin_type="miter"
     unit="mm"
     offset="2.4"
     miter_limit="4"
     attempt_force_join="true"
     update_on_knot_move="true" /><inkscape:path-effect
     effect="offset"
     id="path-effect1174"
     is_visible="true"
     lpeversion="1"
     linejoin_type="miter"
     unit="mm"
     offset="2.4"
     miter_limit="4"
     attempt_force_join="true"
     update_on_knot_move="true" /></defs><sodipodi:namedview
   pagecolor="#ffffff"
   bordercolor="#666666"
   borderopacity="1"
   objecttolerance="10"
   gridtolerance="10"
   guidetolerance="10"
   inkscape:pageopacity="0"
   inkscape:pageshadow="2"
   inkscape:window-width="1886"
   inkscape:window-height="992"
   id="namedview1187"
   showgrid="false"
   fit-margin-top="0"
   fit-margin-left="0"
   fit-margin-right="0"
   fit-margin-bottom="0"
   inkscape:zoom="0.85422345"
   inkscape:cx="195.08462"
   inkscape:cy="145.11256"
   inkscape:window-x="16"
   inkscape:window-y="43"
   inkscape:window-maximized="0"
   inkscape:current-layer="Capa_1"
   inkscape:document-rotation="0" />



<g
   id="g1156"
   transform="translate(24.128906,-323.99204)">
</g>
<g
   id="g1158"
   transform="translate(24.128906,-323.99204)">
</g>
<g
   id="g1160"
   transform="translate(24.128906,-323.99204)">
</g>
<g
   id="g1162"
   transform="translate(24.128906,-323.99204)">
</g>
<g
   id="g1164"
   transform="translate(24.128906,-323.99204)">
</g>
<g
   id="g1166"
   transform="translate(24.128906,-323.99204)">
</g>
<g
   id="g1168"
   transform="translate(24.128906,-323.99204)">
</g>
<g
   id="g1170"
   transform="translate(24.128906,-323.99204)">
</g>
<g
   id="g1172"
   transform="translate(24.128906,-323.99204)">
</g>
<g
   id="g1174"
   transform="translate(24.128906,-323.99204)">
</g>
<g
   id="g1176"
   transform="translate(24.128906,-323.99204)">
</g>
<g
   id="g1178"
   transform="translate(24.128906,-323.99204)">
</g>
<g
   id="g1180"
   transform="translate(24.128906,-323.99204)">
</g>
<g
   id="g1182"
   transform="translate(24.128906,-323.99204)">
</g>
<g
   id="g1184"
   transform="translate(24.128906,-323.99204)">
</g>
<g
   id="g1318"
   transform="translate(0,180.97322)"><path
     style="fill:#f3f3f3"
     d="m 376.1289,98.214962 c -5.588,0 -11.031,0.578 -16.355,1.494 -21.918,-39.059 -63.668,-65.494 -111.645,-65.494 -47.977,0 -89.726,26.434 -111.645,65.494 -5.324,-0.916 -10.767,-1.494 -16.35499,-1.494 -53.019004,0 -96.000004,42.981008 -96.000004,96.000008 0,53.019 42.981,96 96.000004,96 H 376.1289 c 53.019,0 96,-42.981 96,-96 0,-53.019 -42.981,-96.000008 -96,-96.000008 z"
     id="path1152" /><path
     style="fill:#e1e1e1"
     d="m 376.1289,98.214962 c -5.586,0 -11.031,0.578 -16.355,1.494 -0.098,-0.177 -0.23,-0.332 -0.332,-0.509 10.57,18.620008 16.687,40.100008 16.687,63.041008 0,70.678 -57.297,127.974 -127.973,127.974 h 127.973 c 53.019,0 96,-42.981 96,-96 0,-53.019 -42.981,-96.000008 -96,-96.000008 z"
     id="path1154" /><path
     id="path1166"
     style="opacity:1;fill:#717171;fill-opacity:1"
     d="m 369.98633,47.845802 a 85.990295,85.990295 0 0 0 -20.27344,2.4668 c 4.73989,6.63036 8.95342,13.71921 12.55273,21.23047 l 8.52539,17.79101 c 1.75672,-0.11603 3.53129,-0.18945 5.33789,-0.18945 31.85079,0 60.36817,14.137508 79.62891,36.484378 a 85.990295,85.990295 0 0 0 -85.59766,-77.783208 85.990295,85.990295 0 0 0 -0.17382,0 z M 233.91797,1.0127118e-4 A 132.88921,132.88921 0 0 0 133.58398,46.132912 H 86.755859 C 38.693119,46.132912 0,84.826032 0,132.88877 c 0,18.59408 5.795264,35.78352 15.679687,49.875 5.697992,-52.67667 50.245286,-93.619138 104.449223,-93.619138 4.00662,0 7.87432,0.33152 11.67577,0.78516 24.20921,-38.89251 67.19308,-64.78516 116.32422,-64.78516 42.74699,0 80.83433,19.60856 105.95704,50.31836 A 132.88921,132.88921 0 0 0 234.24609,1.0127118e-4 a 132.88921,132.88921 0 0 0 -0.32812,0 z" /></g><g
   id="g5019"
   transform="translate(0,-16)"><path
     style="fill:#fcd95f"
     d="m 144,16 c 0,36.77 -27.229,64 -64,64 36.771,0 64,27.226 64,64 0,-36.774 27.229,-64 64,-64 -36.771,0 -64,-27.231 -64,-64 z"
     id="path5015" /><path
     style="fill:#fcd95f"
     d="m 32,136.752 c 0,18.385 -13.614,32 -32,32 18.386,0 32,13.614 32,32 0,-18.386 13.614,-32 32,-32 -18.386,0 -32,-13.615 -32,-32 z"
     id="path5017" /></g></svg>
