<?xml version="1.0" encoding="UTF-8" standalone="no"?>
<svg
   xmlns:dc="http://purl.org/dc/elements/1.1/"
   xmlns:cc="http://creativecommons.org/ns#"
   xmlns:rdf="http://www.w3.org/1999/02/22-rdf-syntax-ns#"
   xmlns:svg="http://www.w3.org/2000/svg"
   xmlns="http://www.w3.org/2000/svg"
   xmlns:sodipodi="http://sodipodi.sourceforge.net/DTD/sodipodi-0.dtd"
   xmlns:inkscape="http://www.inkscape.org/namespaces/inkscape"
   width="512"
   height="512"
   viewBox="0 0 135.46666 135.46667"
   version="1.1"
   id="svg8"
   inkscape:version="1.0.2 (e86c870879, 2021-01-15)"
   sodipodi:docname="04n.svg">
  <defs
     id="defs2" />
  <sodipodi:namedview
     id="base"
     pagecolor="#ffffff"
     bordercolor="#666666"
     borderopacity="1.0"
     inkscape:pageopacity="0.0"
     inkscape:pageshadow="2"
     inkscape:zoom="0.98994949"
     inkscape:cx="239.97869"
     inkscape:cy="335.00515"
     inkscape:document-units="mm"
     inkscape:current-layer="layer1"
     inkscape:document-rotation="0"
     showgrid="false"
     units="px"
     inkscape:window-width="1886"
     inkscape:window-height="992"
     inkscape:window-x="16"
     inkscape:window-y="43"
     inkscape:window-maximized="0" />
  <metadata
     id="metadata5">
    <rdf:RDF>
      <cc:Work
         rdf:about="">
        <dc:format>image/svg+xml</dc:format>
        <dc:type
           rdf:resource="http://purl.org/dc/dcmitype/StillImage" />
        <dc:title></dc:title>
      </cc:Work>
    </rdf:RDF>
  </metadata>
  <g
     inkscape:label="Layer 1"
     inkscape:groupmode="layer"
     id="layer1">
    <path
       id="path39"
       style="fill:none;fill-opacity:0.276574;stroke:#e5da79;stroke-width:6.63752;stroke-miterlimit:4;stroke-dasharray:none;stroke-opacity:1"
       d="M 45.140111,40.464603 A 21.898202,21.898202 0 0 0 23.818559,57.97652 h -3.128511 c -8.744156,0 -15.7837894,7.039634 -15.7837894,15.783791 0,8.744155 7.0396334,15.783788 15.7837894,15.783788 h 2.038598 c -2.313702,-3.148989 -3.680322,-7.041224 -3.680322,-11.265622 0,-10.530745 8.477495,-19.008241 19.008242,-19.008241 h 3.767918 a 26.372402,26.372402 0 0 1 11.902052,-17.107896 21.898202,21.898202 0 0 0 -8.453537,-1.697737 21.898202,21.898202 0 0 0 -0.132888,0 z m 44.920661,0 a 21.898202,21.898202 0 0 0 -8.405864,1.733493 26.372402,26.372402 0 0 1 11.84544,17.07214 h 3.767916 c 10.530746,0 19.008246,8.477496 19.008246,19.008241 0,4.224398 -1.36662,8.116633 -3.68033,11.265622 h 2.18103 c 8.74415,0 15.78318,-7.039633 15.78319,-15.783788 0,-8.744157 -7.03904,-15.783788 -15.78319,-15.783791 h -3.12912 a 21.898202,21.898202 0 0 0 -21.453835,-17.511917 21.898202,21.898202 0 0 0 -0.133483,0 z M 67.502025,38.179686 a 26.372402,26.372402 0 0 0 -25.677629,21.09034 h -3.767921 c -10.530745,0 -19.008243,8.477495 -19.008243,19.00824 0,10.530742 8.477498,19.008833 19.008243,19.008833 h 59.211701 c 10.530744,0 19.008244,-8.478091 19.008244,-19.008833 0,-10.530745 -8.4775,-19.00824 -19.008244,-19.00824 h -3.76792 a 26.372402,26.372402 0 0 0 -25.837928,-21.09034 26.372402,26.372402 0 0 0 -0.160303,0 z" />
  </g>
</svg>
