<?xml version="1.0" encoding="UTF-8" standalone="no"?>
<svg
   xmlns:dc="http://purl.org/dc/elements/1.1/"
   xmlns:cc="http://creativecommons.org/ns#"
   xmlns:rdf="http://www.w3.org/1999/02/22-rdf-syntax-ns#"
   xmlns:svg="http://www.w3.org/2000/svg"
   xmlns="http://www.w3.org/2000/svg"
   xmlns:sodipodi="http://sodipodi.sourceforge.net/DTD/sodipodi-0.dtd"
   xmlns:inkscape="http://www.inkscape.org/namespaces/inkscape"
   version="1.1"
   x="0px"
   y="0px"
   width="512"
   height="512"
   viewBox="0 0 512 512"
   enable-background="new 0 0 96 96"
   xml:space="preserve"
   id="svg6606"
   sodipodi:docname="09n.svg"
   inkscape:version="1.0.2 (e86c870879, 2021-01-15)"><metadata
   id="metadata6612"><rdf:RDF><cc:Work
       rdf:about=""><dc:format>image/svg+xml</dc:format><dc:type
         rdf:resource="http://purl.org/dc/dcmitype/StillImage" /><dc:title /></cc:Work></rdf:RDF></metadata><defs
   id="defs6610" /><sodipodi:namedview
   pagecolor="#ffffff"
   bordercolor="#666666"
   borderopacity="1"
   objecttolerance="10"
   gridtolerance="10"
   guidetolerance="10"
   inkscape:pageopacity="0"
   inkscape:pageshadow="2"
   inkscape:window-width="1886"
   inkscape:window-height="992"
   id="namedview6608"
   showgrid="false"
   inkscape:zoom="0.74301455"
   inkscape:cx="72.451352"
   inkscape:cy="286.34843"
   inkscape:window-x="16"
   inkscape:window-y="43"
   inkscape:window-maximized="0"
   inkscape:current-layer="svg6606"
   inkscape:document-rotation="0" />
<g
   id="Base"
   display="none">
</g>
<g
   id="Dibujo"
   transform="matrix(8.6206897,0,0,8.6206897,-157.7931,-235.37931)"
   style="fill:#e5da79;fill-opacity:1">
	<path
   d="m 48,78 c -1.105,0 -2,0.896 -2,2 v 4 c 0,1.104 0.895,2 2,2 1.104,0 2,-0.896 2,-2 v -4 c 0,-1.104 -0.896,-2 -2,-2 z m -9,-6 c -1.105,0 -2,0.896 -2,2 v 4 c 0,1.104 0.895,2 2,2 1.104,0 2,-0.896 2,-2 v -4 c 0,-1.104 -0.896,-2 -2,-2 z m 18,0 c -1.105,0 -2,0.896 -2,2 v 4 c 0,1.104 0.895,2 2,2 1.104,0 2,-0.896 2,-2 v -4 c 0,-1.104 -0.896,-2 -2,-2 z m 9,-32 c -0.508,0 -1.112,0.079 -1.689,0.184 C 62.218,33.012 55.663,28 48,28 40.336,28 33.781,33.012 31.688,40.184 31.112,40.079 30.507,40 30,40 c -6.065,0 -11,4.935 -11,11 0,6.065 4.935,11 11,11 h 7 v 4 c 0,1.104 0.895,2 2,2 1.104,0 2,-0.896 2,-2 v -4 h 14 v 4 c 0,1.104 0.895,2 2,2 1.104,0 2,-0.896 2,-2 v -4 h 7 C 72.065,62 77,57.065 77,51 77,44.935 72.065,40 66,40 Z m 0,18 H 30 c -3.859,0 -7,-3.141 -7,-7 0,-3.859 3.141,-7 7,-7 0.277,0 0.723,0.068 1.193,0.162 V 46 c 0,1.104 0.895,2 2,2 1.105,0 2,-0.896 2,-2 V 42.781 C 36.266,36.528 41.629,32 48,32 c 6.37,0 11.733,4.528 12.807,10.782 V 46 c 0,1.104 0.896,2 2,2 1.104,0 2,-0.896 2,-2 V 44.163 C 65.277,44.069 65.726,44 66,44 c 3.859,0 7,3.141 7,7 0,3.859 -3.141,7 -7,7 z m -18,8 c -1.105,0 -2,0.896 -2,2 v 4 c 0,1.104 0.895,2 2,2 1.104,0 2,-0.896 2,-2 v -4 c 0,-1.104 -0.896,-2 -2,-2 z"
   id="path6603"
   style="fill:#e5da79;fill-opacity:1" />
</g>
</svg>
