<?xml version="1.0" encoding="UTF-8" standalone="no"?>
<svg
   xmlns:dc="http://purl.org/dc/elements/1.1/"
   xmlns:cc="http://creativecommons.org/ns#"
   xmlns:rdf="http://www.w3.org/1999/02/22-rdf-syntax-ns#"
   xmlns:svg="http://www.w3.org/2000/svg"
   xmlns="http://www.w3.org/2000/svg"
   xmlns:sodipodi="http://sodipodi.sourceforge.net/DTD/sodipodi-0.dtd"
   xmlns:inkscape="http://www.inkscape.org/namespaces/inkscape"
   version="1.1"
   x="0px"
   y="0px"
   width="512"
   height="512"
   viewBox="0 0 512 512"
   enable-background="new 0 0 96 96"
   xml:space="preserve"
   id="svg13999"
   sodipodi:docname="11n.svg"
   inkscape:version="1.0.2 (e86c870879, 2021-01-15)"><metadata
   id="metadata14005"><rdf:RDF><cc:Work
       rdf:about=""><dc:format>image/svg+xml</dc:format><dc:type
         rdf:resource="http://purl.org/dc/dcmitype/StillImage" /><dc:title /></cc:Work></rdf:RDF></metadata><defs
   id="defs14003" /><sodipodi:namedview
   pagecolor="#ffffff"
   bordercolor="#666666"
   borderopacity="1"
   objecttolerance="10"
   gridtolerance="10"
   guidetolerance="10"
   inkscape:pageopacity="0"
   inkscape:pageshadow="2"
   inkscape:window-width="1886"
   inkscape:window-height="992"
   id="namedview14001"
   showgrid="false"
   inkscape:zoom="0.56922096"
   inkscape:cx="4.028182"
   inkscape:cy="360.7883"
   inkscape:window-x="16"
   inkscape:window-y="43"
   inkscape:window-maximized="0"
   inkscape:current-layer="svg13999"
   inkscape:document-rotation="0" />
<g
   id="Base"
   display="none">
</g>
<g
   id="Dibujo"
   transform="matrix(7.8125,0,0,7.8125,-119,-119)"
   style="fill:#e5da79;fill-opacity:1">
	<g
   id="g13996"
   style="fill:#e5da79;fill-opacity:1">
		<g
   id="g13994"
   style="fill:#e5da79;fill-opacity:1">
			<path
   d="M 69.24,40.488 C 72.173,37.886 74,34.094 74,30 74,28.896 73.104,28 72,28 66.486,28 62,23.514 62,18 62,16.896 61.104,16 60,16 52.922,16 47.069,21.284 46.143,28.111 39.295,28.848 33.61,33.599 31.689,40.183 31.112,40.079 30.507,40 30,40 c -6.065,0 -11,4.935 -11,11 0,6.065 4.935,11 11,11 h 11.263 l -3.927,5.891 c -0.409,0.613 -0.447,1.402 -0.1,2.053 C 37.585,70.594 38.263,71 39,71 h 2.263 l -3.927,5.891 c -0.612,0.919 -0.364,2.161 0.555,2.773 0.34,0.228 0.726,0.336 1.107,0.336 0.646,0 1.28,-0.313 1.666,-0.891 l 6,-9 c 0.409,-0.613 0.447,-1.402 0.1,-2.053 C 46.415,67.406 45.737,67 45,67 h -2.263 l 3.333,-5 h 5.192 l -1.927,2.891 c -0.409,0.613 -0.447,1.402 -0.1,2.053 C 49.585,67.594 50.263,68 51,68 h 2.263 l -1.927,2.891 c -0.612,0.919 -0.364,2.161 0.555,2.773 0.34,0.228 0.726,0.336 1.107,0.336 0.646,0 1.28,-0.313 1.666,-0.891 l 4,-6 c 0.409,-0.613 0.447,-1.402 0.1,-2.053 C 58.415,64.406 57.737,64 57,64 H 54.737 L 56.07,62 H 66 c 6.065,0 11,-4.935 11,-11 0,-4.938 -3.272,-9.125 -7.76,-10.512 z M 58.168,20.168 c 0.934,5.985 5.675,10.728 11.66,11.664 -0.615,3.246 -2.84,6.006 -5.862,7.326 C 61.812,33.21 56.519,28.952 50.174,28.15 c 0.759,-4.039 3.952,-7.23 7.994,-7.982 z M 66,58 H 30 c -3.859,0 -7,-3.141 -7,-7 0,-3.859 3.141,-7 7,-7 0.277,0 0.723,0.068 1.193,0.162 V 46 c 0,1.104 0.896,2 2,2 1.104,0 2,-0.896 2,-2 V 42.781 C 36.266,36.528 41.629,32 48,32 c 6.37,0 11.733,4.528 12.807,10.782 V 46 c 0,1.104 0.896,2 2,2 1.104,0 2,-0.896 2,-2 V 44.163 C 65.277,44.069 65.726,44 66,44 c 3.859,0 7,3.141 7,7 0,3.859 -3.141,7 -7,7 z"
   id="path13992"
   style="fill:#e5da79;fill-opacity:1" />
		</g>
	</g>
</g>
</svg>
