<?xml version="1.0" encoding="UTF-8" standalone="no"?>
<svg
   xmlns:dc="http://purl.org/dc/elements/1.1/"
   xmlns:cc="http://creativecommons.org/ns#"
   xmlns:rdf="http://www.w3.org/1999/02/22-rdf-syntax-ns#"
   xmlns:svg="http://www.w3.org/2000/svg"
   xmlns="http://www.w3.org/2000/svg"
   xmlns:sodipodi="http://sodipodi.sourceforge.net/DTD/sodipodi-0.dtd"
   xmlns:inkscape="http://www.inkscape.org/namespaces/inkscape"
   version="1.1"
   x="0px"
   y="0px"
   width="512"
   height="512"
   viewBox="0 0 512 512"
   enable-background="new 0 0 96 96"
   xml:space="preserve"
   id="svg10569"
   sodipodi:docname="13d.svg"
   inkscape:version="1.0.2 (e86c870879, 2021-01-15)"><metadata
   id="metadata10575"><rdf:RDF><cc:Work
       rdf:about=""><dc:format>image/svg+xml</dc:format><dc:type
         rdf:resource="http://purl.org/dc/dcmitype/StillImage" /><dc:title /></cc:Work></rdf:RDF></metadata><defs
   id="defs10573" /><sodipodi:namedview
   pagecolor="#ffffff"
   bordercolor="#666666"
   borderopacity="1"
   objecttolerance="10"
   gridtolerance="10"
   guidetolerance="10"
   inkscape:pageopacity="0"
   inkscape:pageshadow="2"
   inkscape:window-width="1886"
   inkscape:window-height="992"
   id="namedview10571"
   showgrid="false"
   inkscape:zoom="0.81718477"
   inkscape:cx="64.530656"
   inkscape:cy="310.39727"
   inkscape:window-x="16"
   inkscape:window-y="43"
   inkscape:window-maximized="0"
   inkscape:current-layer="svg10569"
   inkscape:document-rotation="0" />
<g
   id="Base"
   display="none">
</g>
<g
   id="Dibujo"
   transform="matrix(7.462798,0,0,7.462798,-135.79316,-64.62798)"
   style="fill:#e5da79;fill-opacity:1">
	<g
   id="g10566"
   style="fill:#e5da79;fill-opacity:1">
		<path
   d="M 72.555,42.188 C 73.5,40.273 73.999,38.167 73.999,36 c 0,-7.72 -6.28,-14 -14,-14 -4.601,0 -8.895,2.281 -11.496,6.021 C 48.335,28.016 48.169,28 48,28 40.336,28 33.781,33.012 31.688,40.184 31.112,40.079 30.507,40 30,40 c -6.065,0 -11,4.935 -11,11 0,6.065 4.935,11 11,11 1.104,0 2,-0.896 2,-2 0,-1.104 -0.896,-2 -2,-2 -3.859,0 -7,-3.141 -7,-7 0,-3.859 3.141,-7 7,-7 0.277,0 0.723,0.068 1.193,0.162 V 46 c 0,1.104 0.896,2 2,2 1.104,0 2,-0.896 2,-2 V 42.781 C 36.266,36.528 41.629,32 48,32 c 6.37,0 11.733,4.528 12.807,10.782 V 46 c 0,1.104 0.895,2 2,2 1.105,0 2,-0.896 2,-2 V 44.162 C 65.277,44.068 65.723,44 66,44 c 3.859,0 7,3.141 7,7 0,3.859 -3.141,7 -7,7 -1.104,0 -2,0.896 -2,2 0,1.104 0.896,2 2,2 6.065,0 11,-4.935 11,-11 0,-3.607 -1.754,-6.806 -4.445,-8.812 z M 64.311,40.184 C 62.703,34.673 58.456,30.449 53.1,28.783 54.938,27.03 57.396,26 59.999,26 c 5.514,0 10,4.486 10,10 0,1.549 -0.36,3.051 -1.035,4.417 C 68.019,40.152 67.028,40 66,40 c -0.508,0 -1.112,0.079 -1.689,0.184 z"
   id="path10532"
   style="fill:#e5da79;fill-opacity:1" />
		<path
   d="m 59.999,18 c 1.104,0 2,-0.896 2,-2 v -4 c 0,-1.104 -0.896,-2 -2,-2 -1.105,0 -2,0.896 -2,2 v 4 c 0,1.104 0.895,2 2,2 z"
   id="path10534"
   style="fill:#e5da79;fill-opacity:1" />
		<path
   d="m 83.999,34 h -4 c -1.105,0 -2,0.896 -2,2 0,1.104 0.895,2 2,2 h 4 c 1.104,0 2,-0.896 2,-2 0,-1.104 -0.896,-2 -2,-2 z"
   id="path10536"
   style="fill:#e5da79;fill-opacity:1" />
		<path
   d="m 74.142,23.857 c 0.512,0 1.023,-0.195 1.414,-0.586 l 2.828,-2.828 c 0.781,-0.781 0.781,-2.047 0,-2.828 -0.781,-0.781 -2.047,-0.781 -2.828,0 l -2.828,2.828 c -0.781,0.781 -0.781,2.047 0,2.828 0.39,0.391 0.902,0.586 1.414,0.586 z"
   id="path10538"
   style="fill:#e5da79;fill-opacity:1" />
		<path
   d="m 44.443,23.271 c 0.391,0.391 0.902,0.586 1.414,0.586 0.512,0 1.023,-0.195 1.414,-0.586 0.781,-0.781 0.781,-2.047 0,-2.828 l -2.828,-2.828 c -0.781,-0.781 -2.047,-0.781 -2.828,0 -0.781,0.781 -0.781,2.047 0,2.828 z"
   id="path10540"
   style="fill:#e5da79;fill-opacity:1" />
		<path
   d="M 45.732,62.464 C 45.178,61.508 43.959,61.178 43,61.731 c -0.956,0.553 -1.284,1.775 -0.732,2.732 l 1,1.732 c 0.371,0.642 1.043,1 1.734,1 0.339,0 0.683,-0.086 0.998,-0.268 0.956,-0.553 1.284,-1.775 0.732,-2.732 z"
   id="path10542"
   style="fill:#e5da79;fill-opacity:1" />
		<path
   d="M 40.732,53.804 C 40.178,52.847 38.958,52.519 38,53.072 c -0.956,0.553 -1.284,1.775 -0.732,2.732 l 1,1.732 c 0.371,0.642 1.043,1 1.734,1 0.339,0 0.683,-0.086 0.998,-0.267 0.956,-0.553 1.284,-1.775 0.732,-2.733 z"
   id="path10544"
   style="fill:#e5da79;fill-opacity:1" />
		<path
   d="m 43,58.269 c 0.315,0.182 0.659,0.267 0.998,0.267 0.691,0 1.363,-0.358 1.734,-1 l 1,-1.732 c 0.552,-0.957 0.224,-2.18 -0.732,-2.732 -0.96,-0.553 -2.18,-0.225 -2.732,0.732 l -1,1.732 c -0.552,0.957 -0.224,2.18 0.732,2.733 z"
   id="path10546"
   style="fill:#e5da79;fill-opacity:1" />
		<path
   d="m 41,61.731 c -0.96,-0.554 -2.18,-0.224 -2.732,0.733 l -1,1.732 c -0.552,0.957 -0.224,2.18 0.732,2.732 0.315,0.182 0.659,0.268 0.998,0.268 0.691,0 1.363,-0.358 1.734,-1 l 1,-1.732 C 42.284,63.507 41.956,62.284 41,61.731 Z"
   id="path10548"
   style="fill:#e5da79;fill-opacity:1" />
		<path
   d="m 40,60 c 0,-1.104 -0.896,-2 -2,-2 h -2 c -1.105,0 -2,0.896 -2,2 0,1.104 0.895,2 2,2 h 2 c 1.104,0 2,-0.896 2,-2 z"
   id="path10550"
   style="fill:#e5da79;fill-opacity:1" />
		<path
   d="m 50,60 c 0,-1.104 -0.896,-2 -2,-2 h -2 c -1.105,0 -2,0.896 -2,2 0,1.104 0.895,2 2,2 h 2 c 1.104,0 2,-0.896 2,-2 z"
   id="path10552"
   style="fill:#e5da79;fill-opacity:1" />
		<path
   d="M 60.732,71.268 C 60.178,70.312 58.959,69.983 58,70.536 c -0.956,0.553 -1.284,1.775 -0.732,2.732 l 1,1.732 c 0.371,0.642 1.043,1 1.734,1 0.339,0 0.683,-0.086 0.998,-0.268 0.956,-0.553 1.284,-1.775 0.732,-2.732 z"
   id="path10554"
   style="fill:#e5da79;fill-opacity:1" />
		<path
   d="M 55.732,62.607 C 55.178,61.651 53.959,61.321 53,61.875 c -0.956,0.553 -1.284,1.775 -0.732,2.732 l 1,1.732 c 0.371,0.642 1.043,1 1.734,1 0.339,0 0.683,-0.086 0.998,-0.267 0.956,-0.553 1.284,-1.775 0.732,-2.733 z"
   id="path10556"
   style="fill:#e5da79;fill-opacity:1" />
		<path
   d="m 58,67.072 c 0.315,0.182 0.659,0.267 0.998,0.267 0.691,0 1.363,-0.358 1.734,-1 l 1,-1.732 C 62.284,63.65 61.956,62.427 61,61.875 60.04,61.321 58.819,61.651 58.268,62.607 l -1,1.732 C 56.716,65.297 57.044,66.52 58,67.072 Z"
   id="path10558"
   style="fill:#e5da79;fill-opacity:1" />
		<path
   d="m 56,70.535 c -0.96,-0.553 -2.181,-0.224 -2.732,0.732 l -1,1.732 c -0.552,0.957 -0.224,2.18 0.732,2.732 0.315,0.183 0.659,0.269 0.998,0.269 0.691,0 1.363,-0.358 1.734,-1 l 1,-1.732 C 57.284,72.311 56.956,71.088 56,70.535 Z"
   id="path10560"
   style="fill:#e5da79;fill-opacity:1" />
		<path
   d="m 55,68.804 c 0,-1.104 -0.896,-2 -2,-2 h -2 c -1.105,0 -2,0.896 -2,2 0,1.104 0.895,2 2,2 h 2 c 1.104,0 2,-0.896 2,-2 z"
   id="path10562"
   style="fill:#e5da79;fill-opacity:1" />
		<path
   d="m 63,66.804 h -2 c -1.105,0 -2,0.896 -2,2 0,1.104 0.895,2 2,2 h 2 c 1.104,0 2,-0.896 2,-2 0,-1.104 -0.896,-2 -2,-2 z"
   id="path10564"
   style="fill:#e5da79;fill-opacity:1" />
	</g>
</g>
</svg>
