<?xml version="1.0" encoding="UTF-8" standalone="no"?>
<svg
   xmlns:dc="http://purl.org/dc/elements/1.1/"
   xmlns:cc="http://creativecommons.org/ns#"
   xmlns:rdf="http://www.w3.org/1999/02/22-rdf-syntax-ns#"
   xmlns:svg="http://www.w3.org/2000/svg"
   xmlns="http://www.w3.org/2000/svg"
   xmlns:sodipodi="http://sodipodi.sourceforge.net/DTD/sodipodi-0.dtd"
   xmlns:inkscape="http://www.inkscape.org/namespaces/inkscape"
   version="1.1"
   x="0px"
   y="0px"
   width="512"
   height="512"
   viewBox="0 0 512 512"
   enable-background="new 0 0 96 96"
   xml:space="preserve"
   id="svg11943"
   sodipodi:docname="13n.svg"
   inkscape:version="1.0.2 (e86c870879, 2021-01-15)"><metadata
   id="metadata11949"><rdf:RDF><cc:Work
       rdf:about=""><dc:format>image/svg+xml</dc:format><dc:type
         rdf:resource="http://purl.org/dc/dcmitype/StillImage" /><dc:title /></cc:Work></rdf:RDF></metadata><defs
   id="defs11947" /><sodipodi:namedview
   pagecolor="#ffffff"
   bordercolor="#666666"
   borderopacity="1"
   objecttolerance="10"
   gridtolerance="10"
   guidetolerance="10"
   inkscape:pageopacity="0"
   inkscape:pageshadow="2"
   inkscape:window-width="1886"
   inkscape:window-height="992"
   id="namedview11945"
   showgrid="false"
   inkscape:zoom="0.56922096"
   inkscape:cx="228.90028"
   inkscape:cy="274.85829"
   inkscape:window-x="16"
   inkscape:window-y="43"
   inkscape:window-maximized="0"
   inkscape:current-layer="svg11943"
   inkscape:document-rotation="0" />
<g
   id="Base"
   display="none">
</g>
<g
   id="Dibujo"
   transform="matrix(8.3333333,0,0,8.3333333,-143.99999,-127.33333)"
   style="fill:#e5da79;fill-opacity:1">
	<g
   id="g11940"
   style="fill:#e5da79;fill-opacity:1">
		<path
   d="M 69.24,40.488 C 72.173,37.886 74,34.094 74,30 74,28.896 73.104,28 72,28 66.486,28 62,23.514 62,18 62,16.896 61.104,16 60,16 52.922,16 47.069,21.284 46.143,28.111 39.295,28.848 33.61,33.599 31.689,40.183 31.112,40.079 30.507,40 30,40 c -6.065,0 -11,4.935 -11,11 0,6.065 4.935,11 11,11 1.104,0 2,-0.896 2,-2 0,-1.104 -0.896,-2 -2,-2 -3.859,0 -7,-3.141 -7,-7 0,-3.859 3.141,-7 7,-7 0.277,0 0.723,0.068 1.193,0.162 V 46 c 0,1.104 0.895,2 2,2 1.105,0 2,-0.896 2,-2 V 42.781 C 36.266,36.528 41.629,32 48,32 c 6.37,0 11.733,4.528 12.807,10.782 V 46 c 0,1.104 0.896,2 2,2 1.104,0 2,-0.896 2,-2 V 44.162 C 65.277,44.068 65.723,44 66,44 c 3.859,0 7,3.141 7,7 0,3.859 -3.141,7 -7,7 -1.105,0 -2,0.896 -2,2 0,1.104 0.895,2 2,2 6.065,0 11,-4.935 11,-11 0,-4.938 -3.272,-9.125 -7.76,-10.512 z M 50.174,28.15 c 0.759,-4.039 3.952,-7.23 7.994,-7.982 0.934,5.985 5.675,10.728 11.66,11.664 -0.615,3.246 -2.84,6.006 -5.862,7.326 C 61.811,33.21 56.519,28.952 50.174,28.15 Z"
   id="path11914"
   style="fill:#e5da79;fill-opacity:1" />
		<path
   d="M 45.732,62.464 C 45.178,61.508 43.959,61.178 43,61.731 c -0.956,0.553 -1.284,1.775 -0.732,2.732 l 1,1.732 c 0.371,0.642 1.043,1 1.734,1 0.339,0 0.683,-0.086 0.998,-0.268 0.956,-0.553 1.284,-1.775 0.732,-2.732 z"
   id="path11916"
   style="fill:#e5da79;fill-opacity:1" />
		<path
   d="M 40.732,53.804 C 40.178,52.847 38.959,52.519 38,53.072 c -0.956,0.553 -1.284,1.775 -0.732,2.732 l 1,1.732 c 0.371,0.642 1.043,1 1.734,1 0.339,0 0.683,-0.086 0.998,-0.267 0.956,-0.553 1.284,-1.775 0.732,-2.733 z"
   id="path11918"
   style="fill:#e5da79;fill-opacity:1" />
		<path
   d="m 43,58.269 c 0.315,0.182 0.659,0.267 0.998,0.267 0.691,0 1.363,-0.358 1.734,-1 l 1,-1.732 c 0.552,-0.957 0.224,-2.18 -0.732,-2.732 -0.959,-0.553 -2.18,-0.225 -2.732,0.732 l -1,1.732 c -0.552,0.957 -0.224,2.18 0.732,2.733 z"
   id="path11920"
   style="fill:#e5da79;fill-opacity:1" />
		<path
   d="m 41,61.731 c -0.959,-0.554 -2.18,-0.224 -2.732,0.733 l -1,1.732 c -0.552,0.957 -0.224,2.18 0.732,2.732 0.315,0.182 0.659,0.268 0.998,0.268 0.691,0 1.363,-0.358 1.734,-1 l 1,-1.732 C 42.284,63.507 41.956,62.284 41,61.731 Z"
   id="path11922"
   style="fill:#e5da79;fill-opacity:1" />
		<path
   d="m 40,60 c 0,-1.104 -0.896,-2 -2,-2 h -2 c -1.105,0 -2,0.896 -2,2 0,1.104 0.895,2 2,2 h 2 c 1.104,0 2,-0.896 2,-2 z"
   id="path11924"
   style="fill:#e5da79;fill-opacity:1" />
		<path
   d="m 50,60 c 0,-1.104 -0.896,-2 -2,-2 h -2 c -1.105,0 -2,0.896 -2,2 0,1.104 0.895,2 2,2 h 2 c 1.104,0 2,-0.896 2,-2 z"
   id="path11926"
   style="fill:#e5da79;fill-opacity:1" />
		<path
   d="M 60.732,71.268 C 60.178,70.312 58.958,69.983 58,70.536 c -0.956,0.553 -1.284,1.775 -0.732,2.732 l 1,1.732 c 0.371,0.642 1.043,1 1.734,1 0.339,0 0.683,-0.086 0.998,-0.268 0.956,-0.553 1.284,-1.775 0.732,-2.732 z"
   id="path11928"
   style="fill:#e5da79;fill-opacity:1" />
		<path
   d="M 55.732,62.607 C 55.178,61.651 53.958,61.321 53,61.875 c -0.956,0.553 -1.284,1.775 -0.732,2.732 l 1,1.732 c 0.371,0.642 1.043,1 1.734,1 0.339,0 0.683,-0.086 0.998,-0.267 0.956,-0.553 1.284,-1.775 0.732,-2.733 z"
   id="path11930"
   style="fill:#e5da79;fill-opacity:1" />
		<path
   d="m 58,67.072 c 0.315,0.182 0.659,0.267 0.998,0.267 0.691,0 1.363,-0.358 1.734,-1 l 1,-1.732 C 62.284,63.65 61.956,62.427 61,61.875 60.041,61.321 58.82,61.651 58.268,62.607 l -1,1.732 C 56.716,65.297 57.044,66.52 58,67.072 Z"
   id="path11932"
   style="fill:#e5da79;fill-opacity:1" />
		<path
   d="m 56,70.535 c -0.959,-0.553 -2.18,-0.224 -2.732,0.732 l -1,1.732 c -0.552,0.957 -0.224,2.18 0.732,2.732 0.315,0.183 0.659,0.269 0.998,0.269 0.691,0 1.363,-0.358 1.734,-1 l 1,-1.732 C 57.284,72.311 56.956,71.088 56,70.535 Z"
   id="path11934"
   style="fill:#e5da79;fill-opacity:1" />
		<path
   d="m 55,68.804 c 0,-1.104 -0.896,-2 -2,-2 h -2 c -1.105,0 -2,0.896 -2,2 0,1.104 0.895,2 2,2 h 2 c 1.104,0 2,-0.896 2,-2 z"
   id="path11936"
   style="fill:#e5da79;fill-opacity:1" />
		<path
   d="m 63,66.804 h -2 c -1.105,0 -2,0.896 -2,2 0,1.104 0.895,2 2,2 h 2 c 1.104,0 2,-0.896 2,-2 0,-1.104 -0.896,-2 -2,-2 z"
   id="path11938"
   style="fill:#e5da79;fill-opacity:1" />
	</g>
</g>
</svg>
