#define 1592228972103_width 20
#define 1592228972103_height 20
static char 1592228972103_bits[] = {
  0xFF, 0xF9, 0x0F, 0x8F, 0x19, 0x0F, 0x8F, 0x19, 0x0F, 0x1F, 0x89, 0x0F, 
  0x19, 0x80, 0x09, 0x21, 0x40, 0x08, 0x01, 0x00, 0x08, 0x07, 0x0F, 0x0E, 
  0x8F, 0x1F, 0x0F, 0x80, 0x1F, 0x00, 0x80, 0x1F, 0x00, 0x8F, 0x1F, 0x0F, 
  0x07, 0x0F, 0x0E, 0x01, 0x00, 0x08, 0x21, 0x40, 0x08, 0x19, 0x80, 0x09, 
  0x1F, 0x89, 0x0F, 0x8F, 0x19, 0x0F, 0x8F, 0x19, 0x0F, 0xFF, 0xF9, 0x0F, 
  };
