<svg id="Layer_1" enable-background="new 0 0 512 512" height="512" viewBox="0 0 512 512" width="512" xmlns="http://www.w3.org/2000/svg"><g id="XMLID_27_"><path id="XMLID_35_" d="m102.7 266.8v22h-19.7-1.1v-22z" fill="#d8ba4a"/><path id="XMLID_34_" d="m168 266.8v22h-1-21.3v-22z" fill="#ebb63f"/><path id="XMLID_33_" d="m102.7 266.8h21.5v22h-21.5z" fill="#ebb63f"/><path id="XMLID_32_" d="m124.2 266.8h21.5v22h-21.5z" fill="#d8ba4a"/><path id="XMLID_31_" d="m408.7 266.8h21.4v22h-21.4z" fill="#ebb63f"/><path id="XMLID_30_" d="m387.2 266.8h21.5v22h-21.5z" fill="#d8ba4a"/><path id="XMLID_29_" d="m365.7 266.8h21.5v22h-21.5z" fill="#ebb63f"/><path id="XMLID_28_" d="m344.4 266.8h21.3v22h-21.3z" fill="#d8ba4a"/></g><path id="XMLID_82_" d="m81.9 288.8h348.2v16.8h-348.2z" fill="#656672"/><path id="XMLID_81_" d="m81.9 305.6h348.2v152.7h-348.2z" fill="#a18e79"/><g id="XMLID_23_" fill="#7b6757"><path id="XMLID_25_" d="m408.5 354.6v25.9h-41.9v-25.9c0-11.6 9.4-20.9 20.9-20.9 11.7 0 21 9.4 21 20.9z"/><path id="XMLID_24_" d="m145.3 354.6v25.9h-41.9v-25.9c0-11.6 9.4-20.9 20.9-20.9 11.7 0 21 9.4 21 20.9z"/></g><g id="XMLID_22_"><path id="XMLID_16_" d="m166.8 262.3h178.4v196h-178.4z" fill="#b7a48c"/><path id="XMLID_3_" d="m166.8 262.3h30v196h-30z" fill="#9a8877"/></g><g id="XMLID_1_"><path id="XMLID_7_" d="m309.8 372.9v85.3h-107.6v-85.3c0-29.7 24.1-53.8 53.8-53.8 29.7.1 53.8 24.1 53.8 53.8z" fill="#7b6757"/></g><g id="XMLID_19_"><path id="XMLID_6_" d="m350 109.9c25.7 37-2 79.4-2 79.4v.1c-.6-.1-1.3-.1-1.9-.1h-182s-27.8-42.4-2-79.4c17.9-25.8 91.4-37 94-79.4 2.4 42.4 75.9 53.6 93.9 79.4z" fill="#8b959a"/><path id="XMLID_2_" d="m194.1 189.2s-27.8-42.4-2-79.4c13.1-18.8 55.9-29.9 79-51-8.5-7.8-14.3-16.9-15-28.3-2.5 42.4-76.1 53.6-94 79.4-25.7 37 2 79.4 2 79.4z" fill="#6e777a"/></g><g id="XMLID_21_"><path id="XMLID_18_" d="m166.8 243.6h178.4v18.8h-178.4z" fill="#656672"/><path id="XMLID_15_" d="m166.8 218.7h22.7v24.9h-22.7z" fill="#d8ba4a"/><path id="XMLID_14_" d="m189.5 218.7h21.9v24.9h-21.9z" fill="#ebb63f"/><path id="XMLID_13_" d="m211.4 218.7h21.9v24.9h-21.9z" fill="#d8ba4a"/><path id="XMLID_12_" d="m233.2 218.7h21.8v24.9h-21.8z" fill="#ebb63f"/><path id="XMLID_11_" d="m255.1 218.7h21.9v24.9h-21.9z" fill="#d8ba4a"/><path id="XMLID_10_" d="m276.9 218.7h21.9v24.9h-21.9z" fill="#ebb63f"/><path id="XMLID_9_" d="m298.8 218.7h21.9v24.9h-21.9z" fill="#d8ba4a"/><path id="XMLID_8_" d="m320.6 218.7h24.6v24.9h-24.6z" fill="#ebb63f"/><path id="XMLID_5_" d="m166.8 243.6h30v18.8h-30z" fill="#4f5059"/></g><g id="XMLID_42_"><path id="XMLID_55_" d="m486.8 168.6c-6.8-9.8-34.7-14.1-35.7-30.2-1 16.1-28.9 20.4-35.7 30.2-9.8 14 .8 31.2.8 31.2l70.1.2s10.3-17.3.5-31.4z" fill="#8b959a"/><path id="XMLID_54_" d="m96.6 168.6c-6.8-9.8-34.7-14.1-35.7-30.2-1 16.1-28.9 20.4-35.7 30.2-9.8 14 1.4 31 1.4 31l69.1.2s10.7-17.1.9-31.2z" fill="#8b959a"/><path id="XMLID_53_" d="m430.1 217.7h42v240.6h-42z" fill="#b7a48c"/><path id="XMLID_52_" d="m39.9 217.7h42v240.6h-42z" fill="#b7a48c"/><path id="XMLID_51_" d="m350.1 187.4v-.1h-1.9c.6 0 1.1 0 1.7.1z" fill="#8b959a"/><g fill="#8e7f6f"><path id="XMLID_50_" d="m451.8 267.3c-2.8 0-5-2.2-5-5v-11.8c0-2.8 2.2-5 5-5s5 2.2 5 5v11.8c0 2.8-2.2 5-5 5z"/><path id="XMLID_49_" d="m451.8 323.2c-2.8 0-5-2.2-5-5v-11.8c0-2.8 2.2-5 5-5s5 2.2 5 5v11.8c0 2.8-2.2 5-5 5z"/><path id="XMLID_48_" d="m451.8 379.1c-2.8 0-5-2.2-5-5v-11.8c0-2.8 2.2-5 5-5s5 2.2 5 5v11.8c0 2.7-2.2 5-5 5z"/><path id="XMLID_47_" d="m451.8 435c-2.8 0-5-2.2-5-5v-11.8c0-2.8 2.2-5 5-5s5 2.2 5 5v11.8c0 2.7-2.2 5-5 5z"/><path id="XMLID_46_" d="m61.6 267.3c-2.8 0-5-2.2-5-5v-11.8c0-2.8 2.2-5 5-5s5 2.2 5 5v11.8c0 2.8-2.2 5-5 5z"/><path id="XMLID_45_" d="m61.6 323.2c-2.8 0-5-2.2-5-5v-11.8c0-2.8 2.2-5 5-5s5 2.2 5 5v11.8c0 2.8-2.2 5-5 5z"/><path id="XMLID_44_" d="m61.6 379.1c-2.8 0-5-2.2-5-5v-11.8c0-2.8 2.2-5 5-5s5 2.2 5 5v11.8c0 2.7-2.2 5-5 5z"/><path id="XMLID_43_" d="m61.6 435c-2.8 0-5-2.2-5-5v-11.8c0-2.8 2.2-5 5-5s5 2.2 5 5v11.8c0 2.7-2.2 5-5 5z"/></g></g><path id="XMLID_41_" d="m488.7 200.8c-.7-.7-1.5-1.3-2.3-1.8-1.6-.9-3.3-1.3-5.1-1.3h-60.3c-5.8 0-10.5 4.7-10.5 10.5s4.7 10.5 10.5 10.5h60.3c5.8 0 10.5-4.7 10.5-10.5 0-2.8-1.2-5.4-3.1-7.4z" fill="#857f75"/><path id="XMLID_40_" d="m98.5 200.8c-2-2-4.6-3.1-7.4-3.1h-60.4c-5.8 0-10.5 4.7-10.5 10.5s4.7 10.5 10.5 10.5h60.3c5.8 0 10.5-4.7 10.5-10.5.1-2.8-1-5.4-3-7.4z" fill="#857f75"/><path id="XMLID_26_" d="m23.1 457.3h465.9v25.2h-465.9z" fill="#656672"/><path id="XMLID_37_" d="m23.3 457.3h30v25.2h-30z" fill="#4c4d56"/><g id="XMLID_20_"><path id="XMLID_17_" d="m348.9 188.4-183.9-.2c-8.7 0-15.7 7-15.7 15.7s7 15.7 15.7 15.7h182c8.7 0 15.7-7 15.7-15.7 0-7.9-5.9-14.6-13.8-15.5z" fill="#857f75"/><path id="XMLID_4_" d="m179.3 204c0-8.5 6.8-15.5 15.3-15.7h-29.6c-8.7 0-15.7 7-15.7 15.7s7 15.7 15.7 15.7h30c-8.6 0-15.7-7.1-15.7-15.7z" fill="#68625c"/></g></svg>