<?xml version="1.0" encoding="UTF-8" standalone="no"?>
<svg
   xmlns:dc="http://purl.org/dc/elements/1.1/"
   xmlns:cc="http://creativecommons.org/ns#"
   xmlns:rdf="http://www.w3.org/1999/02/22-rdf-syntax-ns#"
   xmlns:svg="http://www.w3.org/2000/svg"
   xmlns="http://www.w3.org/2000/svg"
   xmlns:sodipodi="http://sodipodi.sourceforge.net/DTD/sodipodi-0.dtd"
   xmlns:inkscape="http://www.inkscape.org/namespaces/inkscape"
   sodipodi:docname="lag.svg"
   inkscape:version="1.0 (4035a4fb49, 2020-05-01)"
   id="svg8"
   version="1.1"
   viewBox="0 0 87.497597 87.497597"
   height="87.497597mm"
   width="87.497597mm">
  <defs
     id="defs2">
    <inkscape:path-effect
       fuse_tolerance="0"
       vertical_pattern="false"
       prop_units="false"
       tang_offset="0"
       normal_offset="0"
       spacing="0"
       scale_y_rel="false"
       prop_scale="1"
       copytype="repeated_stretched"
       pattern="m 59.549585,79.696984 h 37.49022 v 2.333655 h -37.49022 z m 0,19.43824 h 37.49022 v 2.333656 H 59.549585 Z M 91.435772,82.434611 c -2.405106,0 -4.278692,0.767375 -5.62076,2.302121 -0.775167,0.884041 -1.294671,1.904721 -1.561738,3.059944 l 11.34367,-4.066915 c -0.02525,-0.01926 -0.04967,-0.04068 -0.07516,-0.05938 -1.116178,-0.823845 -2.478181,-1.23577 -4.086014,-1.23577 z M 61.078433,82.87311 v 13.231792 l 7.21987,-2.588225 H 64.616322 V 82.87311 Z m 14.222567,0 -4.635383,9.794808 5.444281,-1.951654 1.533086,-3.63755 1.117425,2.687053 3.84185,-1.377368 -2.555421,-5.515289 z m 18.899978,2.735839 -11.34367,4.066913 c -0.140377,0.607211 -0.212191,1.250835 -0.212191,1.932967 0,1.064027 0.180206,2.039231 0.538159,2.926646 l -1.976984,-4.267888 -3.841849,1.377362 0.685154,1.64811 h -3.629658 l 0.293992,-0.697608 -5.444281,1.951652 -1.80258,3.808628 h 4.598427 l 1.152722,-2.371876 h 6.008598 l 1.079224,2.371876 h 4.647425 l -1.470385,-3.173719 c 0.192587,0.36338 0.417829,0.710424 0.676851,1.04102 1.335422,1.700848 3.252198,2.551269 5.750312,2.551269 1.534753,0 2.863534,-0.365419 3.986358,-1.096255 1.162686,-0.764043 1.996496,-1.853647 2.501437,-3.268802 0.332203,-0.930155 0.498297,-2.132705 0.498297,-3.607651 h -7.015984 v 2.690789 h 2.900072 c -0.106305,0.677679 -0.332196,1.189259 -0.67768,1.534744 -0.524871,0.52487 -1.235771,0.787302 -2.132701,0.787302 -1.009877,0 -1.817112,-0.322223 -2.421708,-0.966685 -0.817206,-0.863711 -1.225807,-1.94335 -1.225807,-3.238914 0,-0.624533 0.112947,-1.229131 0.33884,-1.813793 0.604598,-1.5879 1.674268,-2.381846 3.209021,-2.381846 0.750764,0 1.398542,0.2259 1.943341,0.677682 0.378704,0.318911 0.710899,0.797272 0.996594,1.435089 l 3.358503,-1.385263 c -0.546678,-1.106223 -1.203264,-1.948509 -1.967849,-2.531749 z m -27.298642,9.786918 -7.219868,2.588222 v 0.371642 h 7.783356 v -2.959864 z"
       is_visible="true"
       id="path-effect4586"
       effect="skeletal" />
    <inkscape:path-effect
       fuse_tolerance="0"
       vertical_pattern="false"
       prop_units="false"
       tang_offset="0"
       normal_offset="0"
       spacing="0"
       scale_y_rel="false"
       prop_scale="1"
       copytype="repeated_stretched"
       pattern="m 80.432889,84.015541 c -2.993104,0 -5.324744,0.954982 -6.994921,2.864943 -0.964679,1.100172 -1.611191,2.370386 -1.94355,3.808037 L 85.611383,85.62733 c -0.03142,-0.02397 -0.06181,-0.05064 -0.09353,-0.0739 -1.38906,-1.02526 -3.084047,-1.537891 -5.084961,-1.537891 z M 42.6538,84.561244 v 16.466696 l 8.98498,-3.220993 H 47.056631 V 84.561244 Z m 17.699694,0 -5.768639,12.189439 6.775296,-2.428793 1.907895,-4.526857 1.390613,3.343982 4.781103,-1.714106 -3.180168,-6.863665 z m 23.520638,3.404696 -14.116966,5.061191 c -0.174696,0.75566 -0.264067,1.556638 -0.264067,2.405538 0,1.32416 0.224263,2.53778 0.669727,3.642151 l -2.460316,-5.311301 -4.781103,1.7141 0.85266,2.05104 H 59.257031 L 59.6229,96.6605 l -6.775297,2.42879 -2.243275,4.73976 h 5.722649 l 1.434539,-2.95175 h 7.477578 l 1.343072,2.95175 h 5.783625 l -1.829863,-3.949629 c 0.23967,0.452219 0.51998,0.884109 0.842327,1.295529 1.661904,2.11667 4.047294,3.175 7.156146,3.175 1.909969,0 3.563609,-0.45475 4.96094,-1.36426 1.44694,-0.95084 2.484599,-2.30683 3.112989,-4.067961 0.41342,-1.15756 0.62012,-2.654109 0.62012,-4.489648 H 78.4972 v 3.34863 h 3.609081 c -0.132289,0.843359 -0.413411,1.48001 -0.843359,1.909958 -0.65319,0.653191 -1.537891,0.979781 -2.654102,0.979781 -1.256773,0 -2.261359,-0.401 -3.013768,-1.20302 -1.016995,-1.07487 -1.52549,-2.418459 -1.52549,-4.030761 0,-0.777219 0.14056,-1.52963 0.42168,-2.257229 0.752409,-1.976109 2.083591,-2.964159 3.99356,-2.964159 0.93431,0 1.740458,0.281128 2.418448,0.84336 0.471291,0.39688 0.8847,0.99219 1.240242,1.78594 l 4.179589,-1.72393 c -0.680329,-1.376672 -1.497439,-2.42488 -2.448949,-3.150711 z m -33.972603,12.17962 -8.98498,3.22099 v 0.4625 h 9.686229 v -3.68349 z"
       is_visible="true"
       id="path-effect855"
       effect="skeletal" />
  </defs>
  <sodipodi:namedview
     inkscape:document-rotation="0"
     inkscape:window-maximized="1"
     inkscape:window-y="22"
     inkscape:window-x="0"
     inkscape:window-height="1056"
     inkscape:window-width="1918"
     fit-margin-bottom="0"
     fit-margin-right="0"
     fit-margin-left="0"
     fit-margin-top="0"
     showgrid="false"
     inkscape:current-layer="layer1"
     inkscape:document-units="mm"
     inkscape:cy="122.13263"
     inkscape:cx="188.63476"
     inkscape:zoom="1.8929568"
     inkscape:pageshadow="2"
     inkscape:pageopacity="0"
     borderopacity="1.0"
     bordercolor="#666666"
     pagecolor="#aeffff"
     id="base" />
  <metadata
     id="metadata5">
    <rdf:RDF>
      <cc:Work
         rdf:about="">
        <dc:format>image/svg+xml</dc:format>
        <dc:type
           rdf:resource="http://purl.org/dc/dcmitype/StillImage" />
        <dc:title />
      </cc:Work>
    </rdf:RDF>
  </metadata>
  <g
     transform="translate(-92.69229,-32.219305)"
     id="layer1"
     inkscape:groupmode="layer"
     inkscape:label="Layer 1">
    <path
       inkscape:connector-curvature="0"
       inkscape:original-d="M 160.70943,75.968101 A 24.26834,24.26834 0 0 1 136.44109,100.23644 24.26834,24.26834 0 0 1 112.17275,75.968101 24.26834,24.26834 0 0 1 136.44109,51.69976 24.26834,24.26834 0 0 1 160.70943,75.968101 Z"
       inkscape:path-effect="#path-effect4586"
       id="path4583"
       d="m 171.59538,75.968101 c -0.65418,19.309994 -15.8443,34.500109 -35.15429,35.154289 l -2e-5,-4e-5 v -2.33365 l 2e-5,3e-5 c 17.89446,-0.51394 32.30669,-14.926167 32.82063,-32.820629 z m -19.43824,0 c 0.51394,7.519284 -8.19677,16.229987 -15.71605,15.716047 l -2e-5,-1.5e-5 v -2.333654 l 2e-5,1.3e-5 c 6.10375,0.654178 14.03657,-7.278639 13.38239,-13.382391 z m -8.0622,31.307639 c 3.17926,-0.84845 5.18767,-2.66048 5.92767,-4.76792 0.43236,-1.22594 0.42289,-2.41393 0.0706,-3.543491 -2.88393,3.370431 -6.78474,6.241231 -11.7191,8.018631 0.0349,0.0162 0.0689,0.0346 0.10419,0.0501 1.54472,0.68348 3.49884,0.80784 5.61663,0.24267 0,0 0,0 0,0 z M 168.29509,78.077858 155.17861,77.11399 c 0.76457,1.867268 1.13101,4.023494 1.09502,6.315599 0.42018,-1.001728 0.76002,-2.030217 1.00966,-3.075601 l 10.22488,2.458236 c 0.37441,-1.539543 0.63963,-3.120582 0.78692,-4.734366 z m -6.92554,17.306376 c -1.29519,-3.607892 -3.08326,-6.875869 -5.26117,-9.661499 -0.2265,1.783187 -0.68262,3.615093 -1.37021,5.430081 0.5891,1.173844 1.12177,2.39246 1.59375,3.65015 -0.94087,-0.306322 -1.86247,-0.646435 -2.76254,-1.018658 -0.64454,1.258223 -1.40478,2.492114 -2.28138,3.678607 1.82479,0.945163 3.77176,1.750753 5.81659,2.399065 1.55647,-1.356254 2.98516,-2.855879 4.26496,-4.477746 z m -21.40417,9.540566 c 4.44446,-1.99519 7.89191,-4.976213 10.35902,-8.349318 -0.22672,-0.579526 -0.54107,-1.140688 -0.93559,-1.693656 -0.61371,-0.860193 -1.32088,-1.551255 -2.06931,-2.104166 1.26358,0.847514 2.60733,1.617605 4.02,2.30207 0.73904,-1.176792 1.36591,-2.388645 1.88126,-3.612494 -0.55224,-0.210744 -1.09696,-0.433876 -1.63364,-0.669006 0.77262,-0.786827 1.49198,-1.625628 2.14865,-2.50695 0.13273,0.209236 0.26353,0.420326 0.39238,0.63323 0.51272,-1.742157 0.80239,-3.476457 0.87086,-5.137264 -0.92412,-0.989145 -1.90318,-1.899545 -2.9311,-2.722825 -0.37467,0.973994 -0.85822,1.929614 -1.43145,2.847638 0.52712,0.638205 1.03091,1.304979 1.50984,1.998181 -0.90476,1.328187 -1.97105,2.56731 -3.15598,3.674487 -0.7501,-0.377728 -1.48035,-0.781545 -2.18887,-1.210088 -0.84176,0.729241 -1.73993,1.384899 -2.67467,1.947131 0.82623,0.728409 1.70238,1.418056 2.6238,2.065568 -0.33323,-0.211129 -0.67405,-0.399452 -1.02133,-0.56737 -1.8047,-0.870495 -3.28279,-0.965327 -4.8265,-0.433948 -0.95429,0.328489 -1.68264,0.847886 -2.33751,1.665766 -0.66467,0.838419 -1.21808,1.955861 -1.59095,3.360958 -0.2439,0.918124 -0.3991,2.141935 -0.38893,3.604686 2.35159,-0.014 4.66375,-0.429388 6.86823,-1.17794 l -0.85463,-2.517712 c -0.80669,0.275185 -1.62738,0.497847 -2.45725,0.663165 -0.0416,-0.673122 0.041,-1.208726 0.23424,-1.601716 0.29585,-0.601672 0.75558,-0.987024 1.41899,-1.211485 0.74702,-0.252745 1.44448,-0.207657 2.1672,0.164521 0.96476,0.491756 1.80116,1.264724 2.38732,2.404781 0.28299,0.550409 0.46012,1.134025 0.50766,1.75742 0.13658,1.678816 -0.64045,2.940476 -2.31658,3.507846 -0.81108,0.27455 -1.59205,0.26074 -2.28806,-0.0259 -0.48594,-0.20432 -0.94424,-0.58697 -1.36355,-1.14601 -1.06492,0.68088 -2.2184,1.29121 -3.46207,1.81437 0.66379,1.07132 1.52276,1.83655 2.53852,2.27602 z m 14.99749,-23.256999 c -0.16389,-2.101237 -0.71539,-4.023025 -1.65023,-5.612287 l -0.3714,-0.0024 c 0.0831,1.660657 -0.23896,3.361896 -0.87303,5.010508 l 2.73902,1.029128 c 0.0537,-0.141205 0.1056,-0.282869 0.15564,-0.424956 z m -18.52184,29.454589 c -19.30996,-0.65421 -34.50005,-15.844314 -35.15423,-35.154289 0,-3.7e-5 0,-7.5e-5 1e-5,-1.13e-4 l 2.33365,9e-6 c 0,3.4e-5 0,6.9e-5 0,1.04e-4 0.51394,17.894444 14.92614,32.306669 32.82058,32.820629 l 3e-5,2.33362 m 0,-19.4382 c -7.51928,0.513921 -16.22997,-8.196772 -15.71603,-15.716049 0,-1.5e-5 0,-3e-5 0,-4.4e-5 l 2.33365,8e-6 c 1e-5,1.2e-5 1e-5,2.4e-5 1e-5,3.6e-5 -0.65418,6.103746 7.27862,14.036553 13.38237,13.382393 l 0,2.333639 m -31.30763,-8.062234 c 0.84844,3.179267 2.66047,5.187678 4.76791,5.927686 1.22593,0.432359 2.41393,0.422888 3.54349,0.07062 -3.37043,-2.883941 -6.24122,-6.784758 -8.01862,-11.71912 -0.0162,0.0349 -0.0346,0.0689 -0.0501,0.10419 -0.68349,1.544721 -0.80784,3.49884 -0.24268,5.61663 0,-10e-7 0,-2e-6 0,-2e-6 z m 29.19784,24.200191 0.96389,-13.116471 c -1.86727,0.764565 -4.02349,1.130998 -6.3156,1.095008 1.00173,0.420183 2.03022,0.760027 3.0756,1.009664 l -2.45825,10.224879 c 1.53954,0.37441 3.12058,0.63963 4.73436,0.78692 z m -17.30636,-6.92556 c 3.60789,-1.295184 6.87587,-3.083254 9.66151,-5.261155 -1.78319,-0.226501 -3.6151,-0.682628 -5.43008,-1.370218 -1.17385,0.589098 -2.39247,1.12177 -3.65016,1.593744 0.30633,-0.940872 0.64644,-1.862464 1.01867,-2.762543 -1.25823,-0.644532 -2.49212,-1.404778 -3.67861,-2.281384 -0.94516,1.824793 -1.75076,3.771759 -2.39907,5.816594 1.35625,1.556466 2.85587,2.985163 4.47774,4.264962 z m -9.54054,-21.404179 c 1.99519,4.444456 4.97621,7.891909 8.34931,10.359027 0.57952,-0.22672 1.14069,-0.541068 1.69365,-0.935584 0.8602,-0.613706 1.55126,-1.320883 2.10417,-2.069311 -0.84751,1.263581 -1.61761,2.607333 -2.30207,4.019998 1.17679,0.73904 2.38864,1.365912 3.61249,1.881262 0.21074,-0.552238 0.43388,-1.096955 0.66901,-1.633637 0.78682,0.772618 1.62562,1.491986 2.50694,2.148651 -0.20923,0.132731 -0.42032,0.263535 -0.63323,0.392384 1.74216,0.512722 3.47646,0.802397 5.13727,0.870864 0.98914,-0.92412 1.89955,-1.903172 2.72283,-2.931095 -0.974,-0.374666 -1.92962,-0.858224 -2.84764,-1.431452 -0.63821,0.527113 -1.30498,1.030904 -1.99818,1.509837 -1.32819,-0.904766 -2.56731,-1.971054 -3.67449,-3.155982 0.37773,-0.750105 0.78155,-1.48035 1.21009,-2.188876 -0.72924,-0.841761 -1.38489,-1.739932 -1.94712,-2.674669 -0.72841,0.826231 -1.41806,1.702375 -2.06557,2.623802 0.21112,-0.33323 0.39945,-0.674055 0.56737,-1.021333 0.87049,-1.804696 0.96533,-3.282789 0.43395,-4.826496 -0.32849,-0.954292 -0.84788,-1.68264 -1.66576,-2.337518 -0.83842,-0.664669 -1.95586,-1.218085 -3.36095,-1.590956 -0.91813,-0.2439 -2.14194,-0.3991 -3.60469,-0.388929 0.014,2.351584 0.42938,4.663751 1.17793,6.868233 l 2.51771,-0.854628 c -0.27518,-0.806692 -0.49784,-1.627385 -0.66316,-2.457255 0.67312,-0.04157 1.20873,0.04099 1.60172,0.234239 0.60167,0.29586 0.98702,0.755582 1.21148,1.419001 0.25274,0.747018 0.20765,1.444477 -0.16453,2.167192 -0.49175,0.964761 -1.26472,1.801161 -2.40478,2.387321 -0.55041,0.282992 -1.13403,0.460112 -1.75742,0.507651 -1.67881,0.136586 -2.94048,-0.640445 -3.50784,-2.316577 -0.27455,-0.811081 -0.26075,-1.592051 0.0259,-2.288068 0.20432,-0.485938 0.58697,-0.944235 1.14601,-1.363546 -0.68088,-1.064921 -1.2912,-2.218405 -1.81436,-3.462076 -1.07132,0.663793 -1.83656,1.522765 -2.27603,2.538526 z m 23.25698,14.997518 c 2.10124,-0.163881 4.02303,-0.715383 5.61229,-1.650215 l 0.002,-0.3714 c -1.66066,0.08311 -3.3619,-0.238975 -5.01051,-0.87304 l -1.02913,2.739011 c 0.1412,0.05371 0.28287,0.105604 0.42495,0.155644 z M 101.28681,75.967988 c 0.65423,-19.30994 15.84432,-34.499999 35.15428,-35.154176 6e-5,2e-6 1.1e-4,4e-6 1.7e-4,6e-6 l -2e-5,2.333653 c -5e-5,-1e-6 -1e-4,-3e-6 -1.5e-4,-4e-6 -17.89443,0.513939 -32.30664,14.926115 -32.82063,32.82053 z m 19.43823,6.9e-5 c -0.5139,-7.519275 8.19678,-16.229944 15.71605,-15.716005 2e-5,-10e-7 4e-5,-3e-6 6e-5,-4e-6 l -1e-5,2.333654 c -1e-5,2e-6 -3e-5,4e-6 -5e-5,6e-6 -6.10374,-0.654177 -14.03654,7.278609 -13.3824,13.382357 z m 8.0623,-31.307618 c -3.17927,0.848433 -5.18768,2.660466 -5.9277,4.7679 -0.43236,1.225934 -0.42289,2.413928 -0.0706,3.543491 2.88395,-3.370427 6.78477,-6.241213 11.71914,-8.018602 -0.0349,-0.01621 -0.0689,-0.0346 -0.10419,-0.05011 -1.54472,-0.683488 -3.49884,-0.807845 -5.61663,-0.242682 0,0 0,0 0,0 z m -24.20024,29.197805 13.11647,0.963913 c -0.76456,-1.867272 -1.13099,-4.023499 -1.095,-6.315604 -0.42018,1.001727 -0.76002,2.030215 -1.00966,3.075598 l -10.22488,-2.458268 c -0.37441,1.539541 -0.63964,3.120579 -0.78693,4.734361 z m 6.92559,-17.306351 c 1.29518,3.607895 3.08324,6.875877 5.26114,9.661514 0.2265,-1.783186 0.68263,-3.615091 1.37023,-5.430078 -0.5891,-1.173846 -1.12177,-2.392463 -1.59374,-3.650154 0.94087,0.306324 1.86246,0.64644 2.76254,1.018666 0.64453,-1.258222 1.40478,-2.492111 2.28139,-3.678602 -1.82479,-0.945167 -3.77176,-1.750762 -5.81659,-2.39908 -1.55647,1.35625 -2.98517,2.855871 -4.26497,4.477734 z m 21.40419,-9.540505 c -4.44446,1.995175 -7.89191,4.976189 -10.35904,8.349287 0.22672,0.579527 0.54107,1.14069 0.93558,1.693658 0.61371,0.860196 1.32089,1.551259 2.06931,2.104172 -1.26358,-0.847518 -2.60733,-1.617612 -4.01999,-2.302081 -0.73904,1.17679 -1.36592,2.388642 -1.88127,3.612489 0.55224,0.210746 1.09696,0.433879 1.63364,0.669011 -0.77262,0.786825 -1.49199,1.625624 -2.14866,2.506944 -0.13273,-0.209237 -0.26353,-0.420327 -0.39238,-0.633231 -0.51273,1.742156 -0.8024,3.476455 -0.87087,5.137262 0.92412,0.989148 1.90317,1.899552 2.93109,2.722835 0.37467,-0.973994 0.85823,-1.929613 1.43146,-2.847636 -0.52712,-0.638207 -1.03091,-1.304982 -1.50984,-1.998186 0.90477,-1.328184 1.97106,-2.567304 3.15599,-3.674479 0.7501,0.377731 1.48035,0.78155 2.18887,1.210095 0.84176,-0.72924 1.73994,-1.384895 2.67467,-1.947123 -0.82623,-0.728412 -1.70237,-1.418061 -2.6238,-2.065576 0.33323,0.21113 0.67406,0.399454 1.02134,0.567372 1.80469,0.870501 3.28278,0.965337 4.82649,0.433964 0.95429,-0.328486 1.68264,-0.84788 2.33752,-1.665758 0.66467,-0.838416 1.21809,-1.955856 1.59096,-3.360952 0.2439,-0.918123 0.39911,-2.141934 0.38894,-3.604681 -2.35159,0.01397 -4.66375,0.429368 -6.86824,1.177913 l 0.85463,2.517715 c 0.80669,-0.275183 1.62738,-0.497842 2.45725,-0.663158 0.0416,0.673123 -0.041,1.208726 -0.23424,1.601716 -0.29586,0.601671 -0.75558,0.987021 -1.419,1.21148 -0.74702,0.252743 -1.44448,0.207653 -2.16719,-0.164528 -0.96476,-0.491758 -1.80116,-1.264729 -2.38732,-2.404788 -0.28299,-0.550409 -0.46011,-1.134026 -0.50765,-1.757421 -0.13658,-1.678814 0.64045,-2.940479 2.31658,-3.507838 0.81108,-0.274546 1.59205,-0.260741 2.28807,0.0259 0.48594,0.204321 0.94424,0.586969 1.36355,1.146013 1.06492,-0.680883 2.2184,-1.291202 3.46208,-1.814358 -0.6638,-1.071322 -1.52277,-1.83656 -2.53853,-2.276031 z m -14.99755,23.256957 c 0.16388,2.101238 0.71538,4.023029 1.6502,5.612294 l 0.37141,0.0024 c -0.0831,-1.660658 0.23898,-3.361897 0.87304,-5.010508 l -2.739,-1.029136 c -0.0537,0.141205 -0.10561,0.282869 -0.15565,0.424955 z m 18.52193,-29.454527 c 19.30999,0.654262 34.50006,15.84446 35.15413,35.154504 l -2.33366,-1.7e-5 C 168.74789,58.0738 154.3357,43.661492 136.44124,43.147471 Z m -1.1e-4,19.43823 c 7.5193,-0.513888 16.22999,8.196856 15.71598,15.716138 l -2.33366,-1.6e-5 c 0.65425,-6.103744 -7.27856,-14.036597 -13.38233,-13.382468 z m 31.30761,8.062347 c -0.84843,-3.179271 -2.66046,-5.187688 -4.76789,-5.927702 -1.22593,-0.432362 -2.41393,-0.422895 -3.54349,-0.07063 3.37042,2.883951 6.2412,6.784777 8.01859,11.719146 0.0162,-0.0349 0.0346,-0.0689 0.0501,-0.104189 0.68349,-1.54472 0.80785,-3.498839 0.24269,-5.616632 0,10e-7 0,2e-6 0,3e-6 z m -29.19777,-24.200278 -0.96393,13.116467 c 1.86727,-0.764558 4.0235,-1.130983 6.31561,-1.094987 -1.00173,-0.420186 -2.03022,-0.760033 -3.0756,-1.009673 l 2.45828,-10.224869 c -1.53954,-0.374414 -3.12057,-0.639644 -4.73436,-0.786938 z m 17.30634,6.925612 c -3.60789,1.295173 -6.87588,3.083234 -9.66152,5.261127 1.78319,0.226507 3.61509,0.682638 5.43008,1.370233 1.17384,-0.589094 2.39246,-1.121763 3.65015,-1.593733 -0.30632,0.94087 -0.64644,1.862461 -1.01866,2.762539 1.25822,0.644536 2.4921,1.404786 3.67859,2.281395 0.94517,-1.824791 1.75077,-3.771755 2.39909,-5.816588 -1.35625,-1.55647 -2.85587,-2.98517 -4.47773,-4.264973 z m 9.54048,21.404207 c -1.99517,-4.444464 -4.97618,-7.891926 -8.34927,-10.359053 -0.57953,0.226719 -1.14069,0.541065 -1.69366,0.935579 -0.8602,0.613704 -1.55126,1.320879 -2.10418,2.069305 0.84752,-1.263578 1.61762,-2.607328 2.30209,-4.019991 -1.17679,-0.739044 -2.38864,-1.365918 -3.61249,-1.881272 -0.21074,0.552237 -0.43388,1.096954 -0.66901,1.633636 -0.78682,-0.77262 -1.62562,-1.491991 -2.50694,-2.148659 0.20923,-0.13273 0.42033,-0.263534 0.63323,-0.392382 -1.74216,-0.512727 -3.47646,-0.802406 -5.13726,-0.870878 -0.98915,0.924117 -1.89956,1.903166 -2.72284,2.931086 0.97399,0.37467 1.92961,0.858231 2.84763,1.431462 0.63821,-0.527112 1.30499,-1.030901 1.99819,-1.509832 1.32818,0.90477 2.5673,1.971062 3.67448,3.155993 -0.37774,0.750103 -0.78156,1.480347 -1.2101,2.188871 0.72924,0.841764 1.38489,1.739936 1.94712,2.674674 0.72841,-0.826229 1.41806,-1.702371 2.06558,-2.623796 -0.21113,0.333229 -0.39946,0.674054 -0.56738,1.021331 -0.8705,1.804693 -0.96534,3.282786 -0.43397,4.826493 0.32849,0.954293 0.84788,1.682642 1.66576,2.337522 0.83841,0.664672 1.95585,1.218091 3.36095,1.590967 0.91812,0.243904 2.14193,0.399107 3.60468,0.388942 -0.014,-2.351585 -0.42936,-4.663754 -1.17791,-6.868237 l -2.51771,0.854619 c 0.27518,0.806694 0.49784,1.627386 0.66315,2.457257 -0.67312,0.04157 -1.20872,-0.041 -1.60171,-0.234244 -0.60167,-0.295862 -0.98702,-0.755585 -1.21148,-1.419004 -0.25274,-0.747019 -0.20765,-1.444478 0.16453,-2.167191 0.49176,-0.964759 1.26473,-1.801157 2.40479,-2.387314 0.55041,-0.28299 1.13403,-0.460108 1.75742,-0.507646 1.67882,-0.136581 2.94048,0.640454 3.50784,2.316587 0.27454,0.811083 0.26074,1.592052 -0.0259,2.288069 -0.20433,0.485938 -0.58697,0.944234 -1.14602,1.363543 0.68088,1.064923 1.2912,2.218409 1.81435,3.462082 1.07133,-0.663789 1.83657,-1.522759 2.27604,-2.538519 z M 142.14087,57.44635 c -2.10124,0.163874 -4.02303,0.715369 -5.6123,1.650193 l -0.002,0.371401 c 1.66066,-0.0831 3.3619,0.238988 5.01051,0.873059 l 1.02914,-2.739007 c -0.14121,-0.05371 -0.28287,-0.105606 -0.42496,-0.155646 z"
       style="opacity:1;vector-effect:none;fill:#ffffff;fill-opacity:1;stroke:none;stroke-width:0.212605;stroke-linecap:round;stroke-linejoin:round;stroke-miterlimit:4;stroke-dasharray:none;stroke-dashoffset:0;stroke-opacity:1;paint-order:markers stroke fill" />
  </g>
</svg>
