<?xml version="1.0" encoding="UTF-8" standalone="no"?>
<svg
   xmlns:dc="http://purl.org/dc/elements/1.1/"
   xmlns:cc="http://creativecommons.org/ns#"
   xmlns:rdf="http://www.w3.org/1999/02/22-rdf-syntax-ns#"
   xmlns:svg="http://www.w3.org/2000/svg"
   xmlns="http://www.w3.org/2000/svg"
   xmlns:sodipodi="http://sodipodi.sourceforge.net/DTD/sodipodi-0.dtd"
   xmlns:inkscape="http://www.inkscape.org/namespaces/inkscape"
   inkscape:version="1.0 (4035a4fb49, 2020-05-01)"
   sodipodi:docname="lock.svg"
   id="svg12"
   version="1"
   height="512"
   width="512">
  <metadata
     id="metadata18">
    <rdf:RDF>
      <cc:Work
         rdf:about="">
        <dc:format>image/svg+xml</dc:format>
        <dc:type
           rdf:resource="http://purl.org/dc/dcmitype/StillImage" />
        <dc:title></dc:title>
      </cc:Work>
    </rdf:RDF>
  </metadata>
  <defs
     id="defs16" />
  <sodipodi:namedview
     inkscape:current-layer="svg12"
     inkscape:window-maximized="0"
     inkscape:window-y="24"
     inkscape:window-x="0"
     inkscape:cy="284.58061"
     inkscape:cx="108.45159"
     inkscape:zoom="0.79549513"
     showgrid="false"
     id="namedview14"
     inkscape:window-height="1030"
     inkscape:window-width="1918"
     inkscape:pageshadow="2"
     inkscape:pageopacity="0"
     guidetolerance="10"
     gridtolerance="10"
     objecttolerance="10"
     borderopacity="1"
     bordercolor="#666666"
     pagecolor="#ffffff" />
  <g
     transform="matrix(12.487805,0,0,12.487805,-43.70732,-49.95122)"
     id="g848">
    <circle
       fill="#ea882b"
       cx="24"
       cy="24"
       r="20"
       id="circle2" />
    <path
       opacity="0.2"
       d="m 24,10 c -4.432,0 -7,3.503 -7,8 v 3 H 15.4 C 14.625,21 14,21.625 14,22.4 v 12.2 c 0,0.775 0.625,1.4 1.4,1.4 H 32.6 C 33.375,36 34,35.375 34,34.6 V 22.4 C 34,21.625 33.375,21 32.6,21 H 31 v -3 c 0,-4.432 -2.568,-8 -7,-8 z m 0,3 c 2.77,0 4,2.23 4,5 v 3 h -8 v -3 c 0,-2.77 1.23,-5 4,-5 z"
       id="path4" />
    <path
       fill="#ffffff"
       d="m 24,9 c -4.432,0 -7,3.503 -7,8 v 3 H 15.4 C 14.625,20 14,20.625 14,21.4 v 12.2 c 0,0.775 0.625,1.4 1.4,1.4 H 32.6 C 33.375,35 34,34.375 34,33.6 V 21.4 C 34,20.625 33.375,20 32.6,20 H 31 V 17 C 31,12.568 28.432,9 24,9 Z m 0,3 c 2.77,0 4,2.23 4,5 v 3 h -8 v -3 c 0,-2.77 1.23,-5 4,-5 z"
       id="path6" />
    <path
       fill="#ffffff"
       opacity="0.2"
       d="M 24,4 A 20,20 0 0 0 4,24 20,20 0 0 0 4.0215,24.582 20,20 0 0 1 23.9995,5 20,20 0 0 1 43.9785,24.418 20,20 0 0 0 43.9995,24 a 20,20 0 0 0 -20,-20 z"
       id="path8" />
    <path
       opacity="0.2"
       d="M 43.979,24.418 A 20,20 0 0 1 24,44 20,20 0 0 1 4.022,24.582 20,20 0 0 0 4,25 20,20 0 0 0 24,45 20,20 0 0 0 44,25 20,20 0 0 0 43.979,24.418 Z"
       id="path10" />
  </g>
</svg>
