<?xml version="1.0" encoding="UTF-8" standalone="no"?>
<svg
   xmlns:dc="http://purl.org/dc/elements/1.1/"
   xmlns:cc="http://creativecommons.org/ns#"
   xmlns:rdf="http://www.w3.org/1999/02/22-rdf-syntax-ns#"
   xmlns:svg="http://www.w3.org/2000/svg"
   xmlns="http://www.w3.org/2000/svg"
   xmlns:sodipodi="http://sodipodi.sourceforge.net/DTD/sodipodi-0.dtd"
   xmlns:inkscape="http://www.inkscape.org/namespaces/inkscape"
   inkscape:version="1.0 (4035a4fb49, 2020-05-01)"
   sodipodi:docname="system-log-out.svg"
   id="svg12"
   version="1"
   height="512"
   width="512">
  <metadata
     id="metadata18">
    <rdf:RDF>
      <cc:Work
         rdf:about="">
        <dc:format>image/svg+xml</dc:format>
        <dc:type
           rdf:resource="http://purl.org/dc/dcmitype/StillImage" />
        <dc:title></dc:title>
      </cc:Work>
    </rdf:RDF>
  </metadata>
  <defs
     id="defs16" />
  <sodipodi:namedview
     inkscape:current-layer="svg12"
     inkscape:window-maximized="0"
     inkscape:window-y="30"
     inkscape:window-x="2"
     inkscape:cy="263.64148"
     inkscape:cx="276.51945"
     inkscape:zoom="0.78103343"
     showgrid="false"
     id="namedview14"
     inkscape:window-height="1046"
     inkscape:window-width="1914"
     inkscape:pageshadow="2"
     inkscape:pageopacity="0"
     guidetolerance="10"
     gridtolerance="10"
     objecttolerance="10"
     borderopacity="1"
     bordercolor="#666666"
     pagecolor="#ffffff" />
  <g
     transform="matrix(12.487805,0,0,12.487805,-43.70732,-49.95122)"
     id="g848">
    <circle
       fill="#7bbb36"
       cx="24"
       cy="24"
       r="20"
       id="circle2" />
    <path
       opacity="0.2"
       d="m 24,12 c 7.18,0 13,5.82 13,13 0,7.18 -5.82,13 -13,13 -7.18,0 -13,-5.82 -13,-13 0,-7.18 5.82,-13 13,-13 z m 0,3 c -5.523,0 -10,4.477 -10,10 0,5.523 4.477,10 10,10 5.523,0 10,-4.477 10,-10 0,-5.523 -4.477,-10 -10,-10 z m 0,4 6,6 -6,6 0.02734,-4 h -3.9336 c -1.157,0 -2.093,-0.892 -2.093,-2 0,-1.108 0.93575,-2 2.0938,-2 h 3.9336 z"
       id="path4" />
    <path
       fill="#ffffff"
       d="m 24,11 c 7.18,0 13,5.82 13,13 0,7.18 -5.82,13 -13,13 -7.18,0 -13,-5.82 -13,-13 0,-7.18 5.82,-13 13,-13 z m 0,3 c -5.523,0 -10,4.477 -10,10 0,5.523 4.477,10 10,10 5.523,0 10,-4.477 10,-10 0,-5.523 -4.477,-10 -10,-10 z m 0,4 6,6 -6,6 0.02734,-4 h -3.9336 c -1.157,0 -2.093,-0.892 -2.093,-2 0,-1.108 0.93575,-2 2.0938,-2 h 3.9336 z"
       id="path6" />
    <path
       fill="#ffffff"
       opacity="0.2"
       d="M 24,4 A 20,20 0 0 0 4,24 20,20 0 0 0 4.0215,24.582 20,20 0 0 1 23.9995,5 20,20 0 0 1 43.9785,24.418 20,20 0 0 0 43.9995,24 a 20,20 0 0 0 -20,-20 z"
       id="path8" />
    <path
       opacity="0.2"
       d="M 43.979,24.418 A 20,20 0 0 1 24,44 20,20 0 0 1 4.022,24.582 20,20 0 0 0 4,25 20,20 0 0 0 24,45 20,20 0 0 0 44,25 20,20 0 0 0 43.979,24.418 Z"
       id="path10" />
  </g>
</svg>
