<?xml version="1.0" encoding="iso-8859-1"?>
<!-- Generator: Adobe Illustrator 19.0.0, SVG Export Plug-In . SVG Version: 6.00 Build 0)  -->
<svg version="1.1" id="Capa_1" xmlns="http://www.w3.org/2000/svg" xmlns:xlink="http://www.w3.org/1999/xlink" x="0px" y="0px"
	 viewBox="0 0 436.907 436.907" style="enable-background:new 0 0 436.907 436.907;" xml:space="preserve">
<circle style="fill:#E05B49;" cx="218.453" cy="218.45" r="218.45"/>
<path style="opacity:0.1;enable-background:new    ;" d="M119.073,297.275v49.186l90.214,90.214
	c3.044,0.126,6.094,0.232,9.169,0.232c93.168,0,172.666-58.349,204.068-140.478L216.558,90.461c-2.287,1.16-4.471,2.56-6.485,4.335
	c-13.21,11.503-14.609,31.539-3.106,44.749c0.486,0.557,1.013,1.055,1.529,1.568l-0.061-0.003l9.283,9.284v9.358h-6.724v11.367
	h-6.042v5.154c-30.959,7.987-54.579,39.014-57.276,64.717h-5.393v5.598l5.154,5.154v16.145h1.024
	C132.248,267.886,119.073,281.027,119.073,297.275z"/>
<path style="fill:#D5D6DB;" d="M317.838,346.453H119.077v-49.187c0-16.228,13.156-29.384,29.384-29.384h139.993
	c16.228,0,29.384,13.156,29.384,29.384V346.453z"/>
<rect x="147.423" y="245.72" style="fill:#64798A;" width="145.41" height="22.16"/>
<g>
	<rect x="278.604" y="248.53" style="fill:#D5D6DB;" width="6.977" height="16.544"/>
	<rect x="267.333" y="248.53" style="fill:#D5D6DB;" width="6.977" height="16.544"/>
	<rect x="256.073" y="248.53" style="fill:#D5D6DB;" width="6.977" height="16.544"/>
	<rect x="244.803" y="248.53" style="fill:#D5D6DB;" width="6.977" height="16.544"/>
	<rect x="233.543" y="248.53" style="fill:#D5D6DB;" width="6.977" height="16.544"/>
	<rect x="222.283" y="248.53" style="fill:#D5D6DB;" width="6.977" height="16.544"/>
	<rect x="211.003" y="248.53" style="fill:#D5D6DB;" width="6.977" height="16.544"/>
	<rect x="199.753" y="248.53" style="fill:#D5D6DB;" width="6.977" height="16.544"/>
	<rect x="188.453" y="248.53" style="fill:#D5D6DB;" width="6.977" height="16.544"/>
	<rect x="177.203" y="248.53" style="fill:#D5D6DB;" width="6.977" height="16.544"/>
	<rect x="165.923" y="248.53" style="fill:#D5D6DB;" width="6.977" height="16.544"/>
	<rect x="154.663" y="248.53" style="fill:#D5D6DB;" width="6.977" height="16.544"/>
	<path style="fill:#D5D6DB;" d="M147.421,245.723c0-30.42,32.529-71.4,72.703-71.4s72.703,40.979,72.703,71.4"/>
	<rect x="204.973" y="171.11" style="fill:#D5D6DB;" width="30.31" height="7.472"/>
</g>
<path style="fill:#3A556A;" d="M220.552,168.274c-1.572,0-2.846-1.273-2.846-2.846v-22.416c0-1.572,1.275-2.846,2.846-2.846
	c1.572,0,2.846,1.275,2.846,2.846v22.416C223.398,167.001,222.124,168.274,220.552,168.274z"/>
<rect x="211.003" y="159.73" style="fill:#64798A;" width="19.1" height="11.387"/>
<g>
	<path style="fill:#3A556A;" d="M308.622,346.453h-27.956V312.28c0-7.72,6.258-13.978,13.978-13.978l0,0
		c7.72,0,13.978,6.258,13.978,13.978V346.453z"/>
	<path style="fill:#3A556A;" d="M270.529,346.453h-27.956V312.28c0-7.72,6.258-13.978,13.978-13.978l0,0
		c7.72,0,13.978,6.258,13.978,13.978V346.453z"/>
	<path style="fill:#3A556A;" d="M232.434,346.453h-27.956V312.28c0-7.72,6.258-13.978,13.978-13.978l0,0
		c7.72,0,13.978,6.258,13.978,13.978V346.453z"/>
	<path style="fill:#3A556A;" d="M194.34,346.453h-27.956V312.28c0-7.72,6.258-13.978,13.978-13.978l0,0
		c7.72,0,13.978,6.258,13.978,13.978V346.453z"/>
	<path style="fill:#3A556A;" d="M156.246,346.453H128.29V312.28c0-7.72,6.258-13.978,13.978-13.978l0,0
		c7.72,0,13.978,6.258,13.978,13.978V346.453z"/>
</g>
<rect x="142.263" y="240.98" style="fill:#64798A;" width="155.43" height="5.608"/>
<path style="fill:#3A556A;" d="M218.684,129.347c-9.741-11.184-10.209-27.244-2.115-38.894c-2.29,1.162-4.487,2.585-6.511,4.348
	c-13.208,11.504-14.59,31.538-3.085,44.747s31.538,14.59,44.747,3.085c2.024-1.763,3.736-3.744,5.201-5.853
	C244.27,143.199,228.426,140.531,218.684,129.347z"/>
<g>
</g>
<g>
</g>
<g>
</g>
<g>
</g>
<g>
</g>
<g>
</g>
<g>
</g>
<g>
</g>
<g>
</g>
<g>
</g>
<g>
</g>
<g>
</g>
<g>
</g>
<g>
</g>
<g>
</g>
</svg>
