<?xml version="1.0" encoding="UTF-8" standalone="no"?>
<svg
   xmlns:dc="http://purl.org/dc/elements/1.1/"
   xmlns:cc="http://creativecommons.org/ns#"
   xmlns:rdf="http://www.w3.org/1999/02/22-rdf-syntax-ns#"
   xmlns:svg="http://www.w3.org/2000/svg"
   xmlns="http://www.w3.org/2000/svg"
   xmlns:sodipodi="http://sodipodi.sourceforge.net/DTD/sodipodi-0.dtd"
   xmlns:inkscape="http://www.inkscape.org/namespaces/inkscape"
   inkscape:version="1.0 (4035a4fb49, 2020-05-01)"
   sodipodi:docname="system-suspend.svg"
   id="svg12"
   version="1"
   height="512"
   width="512">
  <metadata
     id="metadata18">
    <rdf:RDF>
      <cc:Work
         rdf:about="">
        <dc:format>image/svg+xml</dc:format>
        <dc:type
           rdf:resource="http://purl.org/dc/dcmitype/StillImage" />
        <dc:title></dc:title>
      </cc:Work>
    </rdf:RDF>
  </metadata>
  <defs
     id="defs16" />
  <sodipodi:namedview
     inkscape:current-layer="svg12"
     inkscape:window-maximized="0"
     inkscape:window-y="30"
     inkscape:window-x="2"
     inkscape:cy="270.88596"
     inkscape:cx="223.31321"
     inkscape:zoom="0.74214275"
     showgrid="false"
     id="namedview14"
     inkscape:window-height="1046"
     inkscape:window-width="1914"
     inkscape:pageshadow="2"
     inkscape:pageopacity="0"
     guidetolerance="10"
     gridtolerance="10"
     objecttolerance="10"
     borderopacity="1"
     bordercolor="#666666"
     pagecolor="#ffffff" />
  <g
     transform="matrix(12.487805,0,0,12.487805,-43.70732,-49.95122)"
     id="g848">
    <circle
       fill="#41a5c7"
       cx="24"
       cy="24"
       r="20"
       id="circle2" />
    <path
       fill-rule="evenodd"
       opacity="0.2"
       d="m 37,25 c 0,-7.1797 -5.8203,-13 -13,-13 -7.1797,0 -13,5.8203 -13,13 0,7.1797 5.8203,13 13,13 7.1797,0 13,-5.8203 13,-13 z m -3,0 c 0,5.5228 -4.4772,10 -10,10 -5.5228,0 -10,-4.4772 -10,-10 0,-5.5228 4.4772,-10 10,-10 5.5228,0 10,4.4772 10,10 z m -4,0 c 0,-1.108 -0.93613,-2 -2.0938,-2 h -7.8125 c -1.158,0 -2.094,0.892 -2.094,2 0,1.108 0.93613,2 2.0938,2 H 27.906 C 29.064,27 30,26.108 30,25 Z"
       id="path4" />
    <path
       fill="#ffffff"
       fill-rule="evenodd"
       d="m 37,24 c 0,-7.1797 -5.8203,-13 -13,-13 -7.1797,0 -13,5.8203 -13,13 0,7.1797 5.8203,13 13,13 7.1797,0 13,-5.8203 13,-13 z m -3,0 c 0,5.5228 -4.4772,10 -10,10 -5.5228,0 -10,-4.4772 -10,-10 0,-5.5228 4.4772,-10 10,-10 5.5228,0 10,4.4772 10,10 z m -4,0 c 0,-1.108 -0.93613,-2 -2.0938,-2 h -7.8125 c -1.158,0 -2.094,0.892 -2.094,2 0,1.108 0.93613,2 2.0938,2 H 27.906 C 29.064,26 30,25.108 30,24 Z"
       id="path6" />
    <path
       fill="#ffffff"
       opacity="0.2"
       d="M 24,4 A 20,20 0 0 0 4,24 20,20 0 0 0 4.0215,24.582 20,20 0 0 1 23.9995,5 20,20 0 0 1 43.9785,24.418 20,20 0 0 0 43.9995,24 a 20,20 0 0 0 -20,-20 z"
       id="path8" />
    <path
       opacity="0.2"
       d="M 43.979,24.418 A 20,20 0 0 1 24,44 20,20 0 0 1 4.022,24.582 20,20 0 0 0 4,25 20,20 0 0 0 24,45 20,20 0 0 0 44,25 20,20 0 0 0 43.979,24.418 Z"
       id="path10" />
  </g>
</svg>
