<?xml version="1.0" encoding="UTF-8" standalone="no"?>
<svg
   xmlns:dc="http://purl.org/dc/elements/1.1/"
   xmlns:cc="http://creativecommons.org/ns#"
   xmlns:rdf="http://www.w3.org/1999/02/22-rdf-syntax-ns#"
   xmlns:svg="http://www.w3.org/2000/svg"
   xmlns="http://www.w3.org/2000/svg"
   xmlns:sodipodi="http://sodipodi.sourceforge.net/DTD/sodipodi-0.dtd"
   xmlns:inkscape="http://www.inkscape.org/namespaces/inkscape"
   version="1.1"
   x="0px"
   y="0px"
   width="512"
   height="512"
   viewBox="0 0 512 512"
   enable-background="new 0 0 96 96"
   xml:space="preserve"
   id="svg901"
   sodipodi:docname="01d.svg"
   inkscape:version="1.0.2 (e86c870879, 2021-01-15)"><metadata
   id="metadata907"><rdf:RDF><cc:Work
       rdf:about=""><dc:format>image/svg+xml</dc:format><dc:type
         rdf:resource="http://purl.org/dc/dcmitype/StillImage" /><dc:title /></cc:Work></rdf:RDF></metadata><defs
   id="defs905">
	
</defs><sodipodi:namedview
   pagecolor="#ffffff"
   bordercolor="#666666"
   borderopacity="1"
   objecttolerance="10"
   gridtolerance="10"
   guidetolerance="10"
   inkscape:pageopacity="0"
   inkscape:pageshadow="2"
   inkscape:window-width="1886"
   inkscape:window-height="992"
   id="namedview903"
   showgrid="false"
   fit-margin-top="0"
   fit-margin-left="0"
   fit-margin-right="0"
   fit-margin-bottom="0"
   inkscape:zoom="1.1341993"
   inkscape:cx="128.07515"
   inkscape:cy="271.68674"
   inkscape:window-x="16"
   inkscape:window-y="43"
   inkscape:window-maximized="0"
   inkscape:current-layer="svg901"
   inkscape:document-rotation="0" />
<g
   id="Base"
   display="none"
   transform="translate(-22,-22)">
</g>
<path
   d="m 391.98077,139.25 c 4.92307,0 9.84615,-1.875 13.59615,-5.63462 l 27.20192,-27.20192 c 7.50962,-7.509612 7.50962,-19.682688 0,-27.192306 -7.50961,-7.509616 -19.6923,-7.509616 -27.1923,0 l -27.20192,27.201926 c -7.50962,7.50962 -7.50962,19.68269 0,27.1923 3.75,3.75962 8.67308,5.63462 13.59615,5.63462 z M 82.923076,256 c 0,-10.61538 -8.615384,-19.23077 -19.230768,-19.23077 H 25.23077 C 14.615385,236.76923 6,245.38462 6,256 c 0,10.61538 8.615385,19.23077 19.23077,19.23077 h 38.461538 c 10.615384,0 19.230768,-8.61539 19.230768,-19.23077 z m 23.500004,122.38462 -27.201926,27.20192 c -7.509616,7.50962 -7.509616,19.68269 0,27.1923 3.749998,3.75962 8.673074,5.63462 13.596151,5.63462 4.923075,0 9.846155,-1.875 13.596155,-5.63462 l 27.20192,-27.20192 c 7.50962,-7.50962 7.50962,-19.68269 0,-27.1923 -7.5,-7.50962 -19.6923,-7.50962 -27.1923,0 z m 0,-244.76924 c 3.75,3.75962 8.67308,5.63462 13.59615,5.63462 4.92307,0 9.84615,-1.875 13.59615,-5.63462 7.50962,-7.50961 7.50962,-19.68268 0,-27.1923 L 106.41346,79.221154 c -7.500003,-7.509616 -19.692308,-7.509616 -27.192306,0 -7.509616,7.509618 -7.509616,19.682694 0,27.192306 z M 256,82.923076 c 10.61538,0 19.23077,-8.615384 19.23077,-19.230768 V 25.23077 C 275.23077,14.615385 266.61538,6 256,6 245.38462,6 236.76923,14.615385 236.76923,25.23077 v 38.461538 c 0,10.615384 8.61539,19.230768 19.23077,19.230768 z M 486.76923,236.76923 H 448.3077 c -10.6154,0 -19.23078,8.61539 -19.23078,19.23077 0,10.61538 8.61538,19.23077 19.23078,19.23077 h 38.46153 C 497.38462,275.23077 506,266.61538 506,256 c 0,-10.61538 -8.61538,-19.23077 -19.23077,-19.23077 z m -81.19231,141.61539 c -7.5,-7.50962 -19.6923,-7.50962 -27.1923,0 -7.50962,7.50961 -7.50962,19.68268 0,27.1923 l 27.20192,27.20192 c 3.75,3.75962 8.67308,5.63462 13.59616,5.63462 4.92307,0 9.83653,-1.875 13.59614,-5.63462 7.50962,-7.50961 7.50962,-19.68268 0,-27.1923 z M 256,429.07692 c -10.61538,0 -19.23077,8.61538 -19.23077,19.23078 v 38.46153 C 236.76923,497.38462 245.38462,506 256,506 c 10.61538,0 19.23077,-8.61538 19.23077,-19.23077 V 448.3077 c 0,-10.6154 -8.61539,-19.23078 -19.23077,-19.23078 z m 0,-307.6923 c -74.23077,0 -134.61538,60.38461 -134.61538,134.61538 0,74.23077 60.38461,134.61538 134.61538,134.61538 74.23077,0 134.61538,-60.38461 134.61538,-134.61538 0,-74.23077 -60.38461,-134.61538 -134.61538,-134.61538 z m 0,230.76922 c -53.01923,0 -96.15384,-43.13461 -96.15384,-96.15384 0,-53.01923 43.13461,-96.15384 96.15384,-96.15384 53.01923,0 96.15384,43.13461 96.15384,96.15384 0,53.01923 -43.13461,96.15384 -96.15384,96.15384 z"
   id="path898"
   style="stroke-width:9.61539;fill:#434343;fill-opacity:1" />
</svg>
