<?xml version="1.0" encoding="UTF-8" standalone="no"?>
<svg
   xmlns:dc="http://purl.org/dc/elements/1.1/"
   xmlns:cc="http://creativecommons.org/ns#"
   xmlns:rdf="http://www.w3.org/1999/02/22-rdf-syntax-ns#"
   xmlns:svg="http://www.w3.org/2000/svg"
   xmlns="http://www.w3.org/2000/svg"
   xmlns:sodipodi="http://sodipodi.sourceforge.net/DTD/sodipodi-0.dtd"
   xmlns:inkscape="http://www.inkscape.org/namespaces/inkscape"
   version="1.1"
   x="0px"
   y="0px"
   width="512"
   height="512"
   viewBox="0 0 512 512"
   enable-background="new 0 0 96 96"
   xml:space="preserve"
   id="svg7246"
   sodipodi:docname="10d.svg"
   inkscape:version="1.0.2 (e86c870879, 2021-01-15)"><metadata
   id="metadata7252"><rdf:RDF><cc:Work
       rdf:about=""><dc:format>image/svg+xml</dc:format><dc:type
         rdf:resource="http://purl.org/dc/dcmitype/StillImage" /><dc:title /></cc:Work></rdf:RDF></metadata><defs
   id="defs7250" /><sodipodi:namedview
   pagecolor="#ffffff"
   bordercolor="#666666"
   borderopacity="1"
   objecttolerance="10"
   gridtolerance="10"
   guidetolerance="10"
   inkscape:pageopacity="0"
   inkscape:pageshadow="2"
   inkscape:window-width="1886"
   inkscape:window-height="992"
   id="namedview7248"
   showgrid="false"
   inkscape:zoom="0.56922096"
   inkscape:cx="100.87264"
   inkscape:cy="291.74525"
   inkscape:window-x="16"
   inkscape:window-y="43"
   inkscape:window-maximized="0"
   inkscape:current-layer="svg7246"
   inkscape:document-rotation="0" />
<g
   id="Base"
   display="none">
</g>
<g
   id="Dibujo"
   transform="matrix(6.5789474,0,0,6.5789474,-89.398032,-59.789479)"
   style="fill:#434343;fill-opacity:1">
	<path
   d="m 48,78 c -1.105,0 -2,0.896 -2,2 v 4 c 0,1.104 0.895,2 2,2 1.104,0 2,-0.896 2,-2 v -4 c 0,-1.104 -0.896,-2 -2,-2 z M 44.443,23.271 c 0.391,0.391 0.902,0.586 1.414,0.586 0.512,0 1.024,-0.195 1.414,-0.586 0.781,-0.781 0.781,-2.047 0,-2.828 l -2.828,-2.828 c -0.781,-0.781 -2.047,-0.781 -2.828,0 -0.781,0.781 -0.781,2.047 0,2.828 z M 60,18 c 1.104,0 2,-0.896 2,-2 v -4 c 0,-1.104 -0.896,-2 -2,-2 -1.105,0 -2,0.896 -2,2 v 4 c 0,1.104 0.895,2 2,2 z m 14.143,5.857 c 0.512,0 1.023,-0.195 1.414,-0.586 l 2.828,-2.828 c 0.781,-0.781 0.781,-2.047 0,-2.828 -0.781,-0.781 -2.047,-0.781 -2.828,0 l -2.828,2.828 c -0.781,0.781 -0.781,2.047 0,2.828 0.39,0.391 0.902,0.586 1.414,0.586 z M 39,72 c -1.105,0 -2,0.896 -2,2 v 4 c 0,1.104 0.895,2 2,2 1.104,0 2,-0.896 2,-2 v -4 c 0,-1.104 -0.896,-2 -2,-2 z M 84,34 h -4 c -1.105,0 -2,0.896 -2,2 0,1.104 0.895,2 2,2 h 4 c 1.104,0 2,-0.896 2,-2 0,-1.104 -0.896,-2 -2,-2 z M 48,66 c -1.105,0 -2,0.896 -2,2 v 4 c 0,1.104 0.895,2 2,2 1.104,0 2,-0.896 2,-2 v -4 c 0,-1.104 -0.896,-2 -2,-2 z M 72.556,42.187 C 73.501,40.271 74,38.166 74,36 74,28.28 67.72,22 60,22 55.399,22 51.105,24.281 48.504,28.021 48.336,28.016 48.17,28 48.001,28 40.337,28 33.782,33.012 31.689,40.184 31.113,40.079 30.508,40 30.001,40 c -6.066,0 -11,4.935 -11,11 0,6.065 4.934,11 11,11 H 37 v 4 c 0,1.104 0.895,2 2,2 1.104,0 2,-0.896 2,-2 v -4 h 14 v 4 c 0,1.104 0.895,2 2,2 1.104,0 2,-0.896 2,-2 v -4 h 7.001 c 6.065,0 11,-4.935 11,-11 0,-3.608 -1.754,-6.806 -4.445,-8.813 z M 60,26 c 5.514,0 10,4.486 10,10 0,1.548 -0.36,3.05 -1.036,4.417 C 68.019,40.152 67.028,40 66.001,40 65.493,40 64.889,40.079 64.311,40.184 62.703,34.673 58.457,30.449 53.101,28.783 54.939,27.03 57.397,26 60,26 Z m 6.001,32 h -36 c -3.859,0 -7,-3.141 -7,-7 0,-3.859 3.141,-7 7,-7 0.277,0 0.723,0.068 1.192,0.162 V 46 c 0,1.104 0.896,2 2,2 1.104,0 2,-0.896 2,-2 V 42.786 C 36.264,36.53 41.628,32 48.001,32 c 6.37,0 11.733,4.528 12.806,10.781 V 46 c 0,1.104 0.896,2 2,2 1.104,0 2,-0.896 2,-2 V 44.163 C 65.278,44.069 65.727,44 66.001,44 c 3.859,0 7,3.141 7,7 0,3.859 -3.141,7 -7,7 z M 57,72 c -1.105,0 -2,0.896 -2,2 v 4 c 0,1.104 0.895,2 2,2 1.104,0 2,-0.896 2,-2 v -4 c 0,-1.104 -0.896,-2 -2,-2 z"
   id="path7243"
   style="fill:#434343;fill-opacity:1" />
</g>
</svg>
