<?xml version="1.0" encoding="UTF-8" standalone="no"?>
<svg
   xmlns:dc="http://purl.org/dc/elements/1.1/"
   xmlns:cc="http://creativecommons.org/ns#"
   xmlns:rdf="http://www.w3.org/1999/02/22-rdf-syntax-ns#"
   xmlns:svg="http://www.w3.org/2000/svg"
   xmlns="http://www.w3.org/2000/svg"
   xmlns:sodipodi="http://sodipodi.sourceforge.net/DTD/sodipodi-0.dtd"
   xmlns:inkscape="http://www.inkscape.org/namespaces/inkscape"
   version="1.1"
   x="0px"
   y="0px"
   width="512"
   height="512"
   viewBox="0 0 512 512"
   enable-background="new 0 0 96 96"
   xml:space="preserve"
   id="svg8991"
   sodipodi:docname="10n.svg"
   inkscape:version="1.0.2 (e86c870879, 2021-01-15)"><metadata
   id="metadata8997"><rdf:RDF><cc:Work
       rdf:about=""><dc:format>image/svg+xml</dc:format><dc:type
         rdf:resource="http://purl.org/dc/dcmitype/StillImage" /><dc:title /></cc:Work></rdf:RDF></metadata><defs
   id="defs8995" /><sodipodi:namedview
   pagecolor="#ffffff"
   bordercolor="#666666"
   borderopacity="1"
   objecttolerance="10"
   gridtolerance="10"
   guidetolerance="10"
   inkscape:pageopacity="0"
   inkscape:pageshadow="2"
   inkscape:window-width="1886"
   inkscape:window-height="992"
   id="namedview8993"
   showgrid="false"
   inkscape:zoom="0.56922096"
   inkscape:cx="-17.381844"
   inkscape:cy="331.30599"
   inkscape:window-x="16"
   inkscape:window-y="43"
   inkscape:window-maximized="0"
   inkscape:current-layer="svg8991"
   inkscape:document-rotation="0" />
<g
   id="Base"
   display="none">
</g>
<g
   id="Dibujo"
   transform="matrix(7.1428571,0,0,7.1428571,-86.857139,-108.28571)"
   style="fill:#434343;fill-opacity:1">
	<g
   id="g8988"
   style="fill:#434343;fill-opacity:1">
		<path
   d="M 69.24,40.488 C 72.173,37.886 74,34.094 74,30 74,28.896 73.104,28 72,28 66.486,28 62,23.514 62,18 62,16.896 61.104,16 60,16 52.922,16 47.07,21.284 46.143,28.111 39.295,28.849 33.61,33.6 31.688,40.184 31.112,40.079 30.507,40 30,40 c -6.065,0 -11,4.935 -11,11 0,6.065 4.935,11 11,11 h 7 v 4 c 0,1.104 0.896,2 2,2 1.104,0 2,-0.896 2,-2 v -4 h 14 v 4 c 0,1.104 0.896,2 2,2 1.104,0 2,-0.896 2,-2 v -4 h 7 c 6.065,0 11,-4.935 11,-11 0,-4.938 -3.271,-9.125 -7.76,-10.512 z M 58.167,20.168 c 0.935,5.985 5.676,10.728 11.661,11.664 -0.615,3.246 -2.84,6.006 -5.862,7.326 C 61.811,33.21 56.518,28.952 50.174,28.15 c 0.759,-4.039 3.951,-7.23 7.993,-7.982 z M 66,58 H 30 c -3.86,0 -7,-3.141 -7,-7 0,-3.859 3.14,-7 7,-7 0.277,0 0.723,0.068 1.193,0.162 V 46 c 0,1.104 0.896,2 2,2 1.104,0 2,-0.896 2,-2 V 42.779 C 36.268,36.527 41.63,32 48,32 c 6.369,0 11.732,4.527 12.807,10.779 V 46 c 0,1.104 0.896,2 2,2 1.104,0 2,-0.896 2,-2 V 44.163 C 65.277,44.069 65.726,44 66,44 c 3.859,0 7,3.141 7,7 0,3.859 -3.141,7 -7,7 z"
   id="path8978"
   style="fill:#434343;fill-opacity:1" />
		<path
   d="m 48,66 c -1.104,0 -2,0.896 -2,2 v 4 c 0,1.104 0.896,2 2,2 1.104,0 2,-0.896 2,-2 v -4 c 0,-1.104 -0.896,-2 -2,-2 z"
   id="path8980"
   style="fill:#434343;fill-opacity:1" />
		<path
   d="m 48,78 c -1.104,0 -2,0.896 -2,2 v 4 c 0,1.104 0.896,2 2,2 1.104,0 2,-0.896 2,-2 v -4 c 0,-1.104 -0.896,-2 -2,-2 z"
   id="path8982"
   style="fill:#434343;fill-opacity:1" />
		<path
   d="m 39,72 c -1.104,0 -2,0.896 -2,2 v 4 c 0,1.104 0.896,2 2,2 1.104,0 2,-0.896 2,-2 v -4 c 0,-1.104 -0.896,-2 -2,-2 z"
   id="path8984"
   style="fill:#434343;fill-opacity:1" />
		<path
   d="m 57,72 c -1.104,0 -2,0.896 -2,2 v 4 c 0,1.104 0.896,2 2,2 1.104,0 2,-0.896 2,-2 v -4 c 0,-1.104 -0.896,-2 -2,-2 z"
   id="path8986"
   style="fill:#434343;fill-opacity:1" />
	</g>
</g>
</svg>
