<?xml version="1.0" encoding="UTF-8" standalone="no"?>
<svg
   xmlns:dc="http://purl.org/dc/elements/1.1/"
   xmlns:cc="http://creativecommons.org/ns#"
   xmlns:rdf="http://www.w3.org/1999/02/22-rdf-syntax-ns#"
   xmlns:svg="http://www.w3.org/2000/svg"
   xmlns="http://www.w3.org/2000/svg"
   xmlns:sodipodi="http://sodipodi.sourceforge.net/DTD/sodipodi-0.dtd"
   xmlns:inkscape="http://www.inkscape.org/namespaces/inkscape"
   version="1.1"
   x="0px"
   y="0px"
   width="512"
   height="512"
   viewBox="0 0 512 512"
   enable-background="new 0 0 96 96"
   xml:space="preserve"
   id="svg13028"
   sodipodi:docname="11d.svg"
   inkscape:version="1.0.2 (e86c870879, 2021-01-15)"><metadata
   id="metadata13034"><rdf:RDF><cc:Work
       rdf:about=""><dc:format>image/svg+xml</dc:format><dc:type
         rdf:resource="http://purl.org/dc/dcmitype/StillImage" /><dc:title /></cc:Work></rdf:RDF></metadata><defs
   id="defs13032" /><sodipodi:namedview
   pagecolor="#ffffff"
   bordercolor="#666666"
   borderopacity="1"
   objecttolerance="10"
   gridtolerance="10"
   guidetolerance="10"
   inkscape:pageopacity="0"
   inkscape:pageshadow="2"
   inkscape:window-width="1886"
   inkscape:window-height="992"
   id="namedview13030"
   showgrid="false"
   inkscape:zoom="0.80500001"
   inkscape:cx="173.09695"
   inkscape:cy="253.66728"
   inkscape:window-x="16"
   inkscape:window-y="43"
   inkscape:window-maximized="0"
   inkscape:current-layer="svg13028"
   inkscape:document-rotation="0" />
<g
   id="Base"
   display="none">
</g>
<g
   id="Dibujo"
   transform="matrix(7.1428571,0,0,7.1428571,-118.99642,-65.428574)"
   style="fill:#434343;fill-opacity:1">
	<path
   d="m 59.999,18 c 1.104,0 2,-0.896 2,-2 v -4 c 0,-1.104 -0.896,-2 -2,-2 -1.105,0 -2,0.896 -2,2 v 4 c 0,1.104 0.895,2 2,2 z M 72.555,42.188 C 73.5,40.273 73.999,38.167 73.999,36 c 0,-7.72 -6.28,-14 -14,-14 -4.601,0 -8.895,2.281 -11.496,6.021 C 48.335,28.016 48.169,28 48,28 40.336,28 33.781,33.012 31.688,40.184 31.112,40.079 30.507,40 30,40 c -6.065,0 -11,4.935 -11,11 0,6.065 4.935,11 11,11 h 11.263 l -3.927,5.891 c -0.409,0.613 -0.447,1.402 -0.1,2.053 C 37.585,70.594 38.263,71 39,71 h 2.263 l -3.927,5.891 c -0.612,0.919 -0.364,2.161 0.555,2.773 0.34,0.228 0.726,0.336 1.107,0.336 0.646,0 1.28,-0.313 1.666,-0.891 l 6,-9 c 0.409,-0.613 0.447,-1.402 0.1,-2.053 C 46.415,67.406 45.737,67 45,67 h -2.263 l 3.333,-5 h 5.192 l -1.927,2.891 c -0.409,0.613 -0.447,1.402 -0.1,2.053 C 49.585,67.594 50.263,68 51,68 h 2.263 l -1.927,2.891 c -0.612,0.919 -0.364,2.161 0.555,2.773 0.34,0.228 0.726,0.336 1.107,0.336 0.646,0 1.28,-0.313 1.666,-0.891 l 4,-6 c 0.409,-0.613 0.447,-1.402 0.1,-2.053 C 58.415,64.406 57.737,64 57,64 H 54.737 L 56.07,62 H 66 c 6.065,0 11,-4.935 11,-11 0,-3.607 -1.754,-6.806 -4.445,-8.812 z M 59.999,26 c 5.514,0 10,4.486 10,10 0,1.549 -0.36,3.051 -1.035,4.417 C 68.019,40.152 67.028,40 66,40 65.492,40 64.888,40.079 64.311,40.184 62.703,34.673 58.456,30.449 53.1,28.783 54.938,27.03 57.396,26 59.999,26 Z M 66,58 H 30 c -3.859,0 -7,-3.141 -7,-7 0,-3.859 3.141,-7 7,-7 0.277,0 0.723,0.068 1.193,0.162 V 46 c 0,1.104 0.895,2 2,2 1.105,0 2,-0.896 2,-2 V 42.781 C 36.266,36.528 41.629,32 48,32 c 6.37,0 11.733,4.528 12.807,10.782 V 46 c 0,1.104 0.896,2 2,2 1.104,0 2,-0.896 2,-2 V 44.163 C 65.277,44.069 65.726,44 66,44 c 3.859,0 7,3.141 7,7 0,3.859 -3.141,7 -7,7 z m 8.142,-34.143 c 0.512,0 1.023,-0.195 1.414,-0.586 l 2.828,-2.828 c 0.781,-0.781 0.781,-2.047 0,-2.828 -0.781,-0.781 -2.047,-0.781 -2.828,0 l -2.828,2.828 c -0.781,0.781 -0.781,2.047 0,2.828 0.39,0.391 0.902,0.586 1.414,0.586 z M 44.443,23.271 c 0.391,0.391 0.902,0.586 1.414,0.586 0.512,0 1.023,-0.195 1.414,-0.586 0.781,-0.781 0.781,-2.047 0,-2.828 l -2.828,-2.828 c -0.781,-0.781 -2.047,-0.781 -2.828,0 -0.781,0.781 -0.781,2.047 0,2.828 z M 83.999,34 h -4 c -1.105,0 -2,0.896 -2,2 0,1.104 0.895,2 2,2 h 4 c 1.104,0 2,-0.896 2,-2 0,-1.104 -0.896,-2 -2,-2 z"
   id="path13025"
   style="fill:#434343;fill-opacity:1" />
</g>
</svg>
