<?xml version="1.0" encoding="UTF-8" standalone="no"?>
<svg
   xmlns:dc="http://purl.org/dc/elements/1.1/"
   xmlns:cc="http://creativecommons.org/ns#"
   xmlns:rdf="http://www.w3.org/1999/02/22-rdf-syntax-ns#"
   xmlns:svg="http://www.w3.org/2000/svg"
   xmlns="http://www.w3.org/2000/svg"
   xmlns:sodipodi="http://sodipodi.sourceforge.net/DTD/sodipodi-0.dtd"
   xmlns:inkscape="http://www.inkscape.org/namespaces/inkscape"
   version="1.1"
   x="0px"
   y="0px"
   width="512"
   height="512"
   viewBox="0 0 512 512"
   enable-background="new 0 0 96 96"
   xml:space="preserve"
   id="svg15193"
   sodipodi:docname="50d.svg"
   inkscape:version="1.0.2 (e86c870879, 2021-01-15)"><metadata
   id="metadata15199"><rdf:RDF><cc:Work
       rdf:about=""><dc:format>image/svg+xml</dc:format><dc:type
         rdf:resource="http://purl.org/dc/dcmitype/StillImage" /><dc:title /></cc:Work></rdf:RDF></metadata><defs
   id="defs15197" /><sodipodi:namedview
   pagecolor="#ffffff"
   bordercolor="#666666"
   borderopacity="1"
   objecttolerance="10"
   gridtolerance="10"
   guidetolerance="10"
   inkscape:pageopacity="0"
   inkscape:pageshadow="2"
   inkscape:window-width="1886"
   inkscape:window-height="992"
   id="namedview15195"
   showgrid="false"
   inkscape:zoom="0.79909951"
   inkscape:cx="24.690383"
   inkscape:cy="228.60037"
   inkscape:window-x="16"
   inkscape:window-y="43"
   inkscape:window-maximized="0"
   inkscape:current-layer="svg15193"
   inkscape:document-rotation="0" />
<g
   id="Base"
   display="none">
</g>
<g
   id="Dibujo"
   transform="matrix(6.8493077,0,0,6.8493077,-62.492808,-31.670923)"
   style="fill:#434343;fill-opacity:1">
	<g
   id="g15190"
   style="fill:#434343;fill-opacity:1">
		<path
   d="m 57,24 c 1.104,0 2,-0.896 2,-2 v -4 c 0,-1.104 -0.896,-2 -2,-2 -1.105,0 -2,0.896 -2,2 v 4 c 0,1.104 0.895,2 2,2 z"
   id="path15168"
   style="fill:#434343;fill-opacity:1" />
		<path
   d="m 81,40 h -4 c -1.105,0 -2,0.896 -2,2 0,1.104 0.895,2 2,2 h 4 c 1.104,0 2,-0.896 2,-2 0,-1.104 -0.896,-2 -2,-2 z"
   id="path15170"
   style="fill:#434343;fill-opacity:1" />
		<path
   d="m 71.143,29.857 c 0.512,0 1.023,-0.195 1.414,-0.586 l 2.828,-2.828 c 0.781,-0.781 0.781,-2.047 0,-2.828 -0.781,-0.781 -2.047,-0.781 -2.828,0 l -2.828,2.828 c -0.781,0.781 -0.781,2.047 0,2.828 0.39,0.391 0.902,0.586 1.414,0.586 z"
   id="path15172"
   style="fill:#434343;fill-opacity:1" />
		<path
   d="m 41.443,29.271 c 0.391,0.391 0.902,0.586 1.414,0.586 0.512,0 1.024,-0.195 1.414,-0.586 0.781,-0.781 0.781,-2.047 0,-2.828 l -2.828,-2.828 c -0.781,-0.781 -2.047,-0.781 -2.828,0 -0.781,0.781 -0.781,2.047 0,2.828 z"
   id="path15174"
   style="fill:#434343;fill-opacity:1" />
		<path
   d="m 21,44 h 30 c 1.104,0 2,-0.896 2,-2 0,-1.104 -0.896,-2 -2,-2 H 21 c -1.105,0 -2,0.896 -2,2 0,1.104 0.895,2 2,2 z"
   id="path15176"
   style="fill:#434343;fill-opacity:1" />
		<path
   d="M 14.999,50 H 39 c 1.104,0 2,-0.896 2,-2 0,-1.104 -0.896,-2 -2,-2 H 14.999 c -1.105,0 -2,0.896 -2,2 0,1.104 0.895,2 2,2 z"
   id="path15178"
   style="fill:#434343;fill-opacity:1" />
		<path
   d="M 72,52 H 12 c -1.105,0 -2,0.896 -2,2 0,1.104 0.895,2 2,2 h 60 c 1.104,0 2,-0.896 2,-2 0,-1.104 -0.896,-2 -2,-2 z"
   id="path15180"
   style="fill:#434343;fill-opacity:1" />
		<path
   d="M 72,58 H 15 c -1.105,0 -2,0.896 -2,2 0,1.104 0.895,2 2,2 h 57 c 1.104,0 2,-0.896 2,-2 0,-1.104 -0.896,-2 -2,-2 z"
   id="path15182"
   style="fill:#434343;fill-opacity:1" />
		<path
   d="M 33,64 21,63.999 c -1.105,0 -2,0.896 -2,2 0,1.104 0.895,2 2,2 L 33,68 c 1.104,0 2,-0.896 2,-2 0,-1.104 -0.896,-2 -2,-2 z"
   id="path15184"
   style="fill:#434343;fill-opacity:1" />
		<path
   d="M 66,63.999 39,64 c -1.105,0 -2,0.896 -2,2 0,1.104 0.895,2 2,2 l 27,-0.001 c 1.104,0 2,-0.896 2,-2 0,-1.104 -0.896,-2 -2,-2 z"
   id="path15186"
   style="fill:#434343;fill-opacity:1" />
		<path
   d="m 33,38 h 13.603 c 0.714,0 1.373,-0.38 1.731,-0.997 C 50.121,33.917 53.442,32 57,32 c 5.514,0 10,4.486 10,10 0,1.393 -0.29,2.767 -0.827,4 H 45 c -1.105,0 -2,0.896 -2,2 0,1.104 0.895,2 2,2 h 22.394 c 0.681,0 1.314,-0.346 1.683,-0.919 0.018,-0.027 0.053,-0.083 0.069,-0.112 C 70.358,46.857 71,44.448 71,42 71,34.28 64.72,28 57,28 52.416,28 48.113,30.272 45.509,34 H 33 c -1.105,0 -2,0.896 -2,2 0,1.104 0.895,2 2,2 z"
   id="path15188"
   style="fill:#434343;fill-opacity:1" />
	</g>
</g>
</svg>
