<?xml version="1.0" encoding="UTF-8" standalone="no"?>
<svg
   xmlns:dc="http://purl.org/dc/elements/1.1/"
   xmlns:cc="http://creativecommons.org/ns#"
   xmlns:rdf="http://www.w3.org/1999/02/22-rdf-syntax-ns#"
   xmlns:svg="http://www.w3.org/2000/svg"
   xmlns="http://www.w3.org/2000/svg"
   xmlns:sodipodi="http://sodipodi.sourceforge.net/DTD/sodipodi-0.dtd"
   xmlns:inkscape="http://www.inkscape.org/namespaces/inkscape"
   version="1.1"
   x="0px"
   y="0px"
   width="512"
   height="512"
   viewBox="0 0 512 512"
   enable-background="new 0 0 96 96"
   xml:space="preserve"
   id="svg18186"
   sodipodi:docname="50n.svg"
   inkscape:version="1.0.2 (e86c870879, 2021-01-15)"><metadata
   id="metadata18192"><rdf:RDF><cc:Work
       rdf:about=""><dc:format>image/svg+xml</dc:format><dc:type
         rdf:resource="http://purl.org/dc/dcmitype/StillImage" /><dc:title /></cc:Work></rdf:RDF></metadata><defs
   id="defs18190" /><sodipodi:namedview
   pagecolor="#ffffff"
   bordercolor="#666666"
   borderopacity="1"
   objecttolerance="10"
   gridtolerance="10"
   guidetolerance="10"
   inkscape:pageopacity="0"
   inkscape:pageshadow="2"
   inkscape:window-width="1886"
   inkscape:window-height="992"
   id="namedview18188"
   showgrid="false"
   inkscape:zoom="1.12"
   inkscape:cx="274.59179"
   inkscape:cy="251.97915"
   inkscape:window-x="16"
   inkscape:window-y="43"
   inkscape:window-maximized="0"
   inkscape:current-layer="svg18186"
   inkscape:document-rotation="0" />
<g
   id="Base"
   display="none">
</g>
<g
   id="Dibujo"
   transform="matrix(7.8125,0,0,7.8125,-72.125011,-95.562495)"
   style="fill:#434343;fill-opacity:1">
	<g
   id="g18183"
   style="fill:#434343;fill-opacity:1">
		<path
   d="m 21,44 h 30 c 1.104,0 2,-0.896 2,-2 0,-1.104 -0.896,-2 -2,-2 H 21 c -1.104,0 -2,0.896 -2,2 0,1.104 0.896,2 2,2 z"
   id="path18169"
   style="fill:#434343;fill-opacity:1" />
		<path
   d="M 14.999,50 H 39 c 1.104,0 2,-0.896 2,-2 0,-1.104 -0.896,-2 -2,-2 H 14.999 c -1.104,0 -2,0.896 -2,2 0,1.104 0.896,2 2,2 z"
   id="path18171"
   style="fill:#434343;fill-opacity:1" />
		<path
   d="m 74,54 c 0,-1.104 -0.896,-2 -2,-2 H 12 c -1.104,0 -2,0.896 -2,2 0,1.104 0.896,2 2,2 h 60 c 1.105,0 2,-0.896 2,-2 z"
   id="path18173"
   style="fill:#434343;fill-opacity:1" />
		<path
   d="M 72,58 H 15 c -1.104,0 -2,0.896 -2,2 0,1.104 0.896,2 2,2 h 57 c 1.104,0 2,-0.896 2,-2 0,-1.104 -0.895,-2 -2,-2 z"
   id="path18175"
   style="fill:#434343;fill-opacity:1" />
		<path
   d="M 33,64 21,63.999 c -1.104,0 -2,0.896 -2,2 0,1.104 0.896,2 2,2 L 33,68 c 1.104,0 2,-0.896 2,-2 0,-1.104 -0.895,-2 -2,-2 z"
   id="path18177"
   style="fill:#434343;fill-opacity:1" />
		<path
   d="M 66,63.999 39,64 c -1.104,0 -2,0.896 -2,2 0,1.104 0.896,2 2,2 l 27,-0.001 c 1.104,0 2,-0.896 2,-2 0,-1.104 -0.895,-2 -2,-2 z"
   id="path18179"
   style="fill:#434343;fill-opacity:1" />
		<path
   d="m 33,38 h 12 c 1.104,0 2,-0.896 2,-2 0,-4.888 3.524,-8.968 8.166,-9.831 0.45,2.918 1.808,5.608 3.933,7.733 2.125,2.125 4.815,3.482 7.732,3.933 -0.864,4.64 -4.943,8.164 -9.831,8.164 L 45,46 c -1.104,0 -2,0.896 -2,2 0,1.104 0.896,2 2,2 l 12,-0.002 c 7.719,0 13.999,-6.28 13.999,-13.999 0,-0.53 -0.211,-1.039 -0.586,-1.414 -0.375,-0.375 -0.884,-0.586 -1.414,-0.586 -10e-4,0 -10e-4,0 -0.002,0 -2.672,0 -5.184,-1.039 -7.07,-2.926 C 60.04,29.185 59,26.674 59,24 59,22.896 58.104,22 57,22 49.959,22 44.116,27.225 43.143,34 H 33 c -1.104,0 -2,0.896 -2,2 0,1.104 0.896,2 2,2 z"
   id="path18181"
   style="fill:#434343;fill-opacity:1" />
	</g>
</g>
</svg>
