<?xml version="1.0" encoding="UTF-8" standalone="no"?>
<svg
   xmlns:dc="http://purl.org/dc/elements/1.1/"
   xmlns:cc="http://creativecommons.org/ns#"
   xmlns:rdf="http://www.w3.org/1999/02/22-rdf-syntax-ns#"
   xmlns:svg="http://www.w3.org/2000/svg"
   xmlns="http://www.w3.org/2000/svg"
   xmlns:sodipodi="http://sodipodi.sourceforge.net/DTD/sodipodi-0.dtd"
   xmlns:inkscape="http://www.inkscape.org/namespaces/inkscape"
   inkscape:version="1.0 (4035a4fb49, 2020-05-01)"
   sodipodi:docname="playPause.svg"
   inkscape:export-ydpi="96"
   inkscape:export-xdpi="96"
   inkscape:export-filename="C:\Users\Hisham Abdul Hai\playPause.png"
   id="svg8"
   version="1.1"
   viewBox="0 0 296.99998 210.00001"
   height="793.70081"
   width="1122.5197">
  <defs
     id="defs2" />
  <sodipodi:namedview
     inkscape:window-maximized="1"
     inkscape:window-y="-8"
     inkscape:window-x="1592"
     inkscape:window-height="838"
     inkscape:window-width="1600"
     showborder="false"
     units="px"
     showgrid="false"
     inkscape:document-rotation="0"
     inkscape:current-layer="layer1"
     inkscape:document-units="mm"
     inkscape:cy="583.33627"
     inkscape:cx="372.62771"
     inkscape:zoom="0.98994949"
     inkscape:pageshadow="2"
     inkscape:pageopacity="0"
     borderopacity="1.0"
     bordercolor="#666666"
     pagecolor="#b1cbff"
     id="base" />
  <metadata
     id="metadata5">
    <rdf:RDF>
      <cc:Work
         rdf:about="">
        <dc:format>image/svg+xml</dc:format>
        <dc:type
           rdf:resource="http://purl.org/dc/dcmitype/StillImage" />
        <dc:title></dc:title>
      </cc:Work>
    </rdf:RDF>
  </metadata>
  <g
     id="layer1"
     inkscape:groupmode="layer"
     inkscape:label="Capa 1">
    <rect
       y="134.24977"
       x="45.311962"
       height="44.979168"
       width="84.666664"
       id="rect835"
       style="fill:none;stroke-width:0.631784" />
    <path
       transform="scale(0.26458333)"
       d="M 204.9668 517.40039 C 191.83208 517.40039 181.25781 527.97469 181.25781 541.10938 L 181.25781 643.69141 C 181.25781 656.8261 191.83208 667.40039 204.9668 667.40039 L 457.54883 667.40039 C 470.68356 667.40039 481.25781 656.8261 481.25781 643.69141 L 481.25781 541.10938 C 481.25781 527.97469 470.68356 517.40039 457.54883 517.40039 L 204.9668 517.40039 z M 237.4707 527.40039 L 350.05273 592.40039 L 237.4707 657.40039 L 237.4707 527.40039 z M 357.56836 527.40039 L 377.56836 527.40039 L 377.56836 657.40039 L 357.56836 657.40039 L 357.56836 527.40039 z M 405.04492 527.40039 L 425.04492 527.40039 L 425.04492 657.40039 L 405.04492 657.40039 L 405.04492 527.40039 z "
       style="fill:#ffffff;stroke-width:0.666482"
       id="rect833" />
  </g>
</svg>
