<?xml version="1.0" encoding="UTF-8" standalone="no"?>
<svg
   xmlns:dc="http://purl.org/dc/elements/1.1/"
   xmlns:cc="http://creativecommons.org/ns#"
   xmlns:rdf="http://www.w3.org/1999/02/22-rdf-syntax-ns#"
   xmlns:svg="http://www.w3.org/2000/svg"
   xmlns="http://www.w3.org/2000/svg"
   xmlns:sodipodi="http://sodipodi.sourceforge.net/DTD/sodipodi-0.dtd"
   xmlns:inkscape="http://www.inkscape.org/namespaces/inkscape"
   inkscape:version="1.0 (4035a4fb49, 2020-05-01)"
   sodipodi:docname="shutdown.svg"
   id="svg12"
   version="1"
   height="512"
   width="512">
  <metadata
     id="metadata18">
    <rdf:RDF>
      <cc:Work
         rdf:about="">
        <dc:format>image/svg+xml</dc:format>
        <dc:type
           rdf:resource="http://purl.org/dc/dcmitype/StillImage" />
        <dc:title></dc:title>
      </cc:Work>
    </rdf:RDF>
  </metadata>
  <defs
     id="defs16" />
  <sodipodi:namedview
     inkscape:current-layer="svg12"
     inkscape:window-maximized="0"
     inkscape:window-y="30"
     inkscape:window-x="2"
     inkscape:cy="279.99491"
     inkscape:cx="205.50509"
     inkscape:zoom="1.0911978"
     showgrid="false"
     id="namedview14"
     inkscape:window-height="1046"
     inkscape:window-width="1914"
     inkscape:pageshadow="2"
     inkscape:pageopacity="0"
     guidetolerance="10"
     gridtolerance="10"
     objecttolerance="10"
     borderopacity="1"
     bordercolor="#666666"
     pagecolor="#ffffff" />
  <g
     transform="translate(6.2438965)"
     id="g848">
    <circle
       fill="#c2352a"
       cx="249.7561"
       cy="249.7561"
       r="249.7561"
       id="circle2"
       style="stroke-width:12.4878" />
    <path
       fill-rule="evenodd"
       opacity="0.2"
       d="m 249.7561,99.90244 c -89.6587,0 -162.341466,72.68277 -162.341466,162.34146 0,89.6587 72.682766,162.34147 162.341466,162.34147 89.65869,0 162.34146,-72.68277 162.34146,-162.34147 0,-89.65869 -72.68277,-162.34146 -162.34146,-162.34146 z m 0,37.46341 c 68.96765,0 124.87805,55.9104 124.87805,124.87805 0,68.96765 -55.9104,124.87805 -124.87805,124.87805 -68.96765,0 -124.87805,-55.9104 -124.87805,-124.87805 0,-68.96765 55.9104,-124.87805 124.87805,-124.87805 z m 0,49.95122 c -13.83649,0 -24.97561,11.69021 -24.97561,26.14697 v 97.56097 c 0,14.46088 11.13912,26.14947 24.97561,26.14947 13.83649,0 24.97561,-11.69021 24.97561,-26.14697 v -97.56097 c 0,-14.46088 -11.13912,-26.14947 -24.97561,-26.14947 z"
       id="path4"
       style="stroke-width:12.4878" />
    <path
       fill="#ffffff"
       fill-rule="evenodd"
       d="m 249.7561,87.414634 c -89.66244,0 -162.341466,72.679026 -162.341466,162.341466 0,89.66244 72.679026,162.34146 162.341466,162.34146 89.66244,0 162.34146,-72.67902 162.34146,-162.34146 0,-89.66244 -72.67902,-162.341466 -162.34146,-162.341466 z m 0,37.463416 c 68.97014,0 124.87805,55.9079 124.87805,124.87805 0,68.97014 -55.90791,124.87805 -124.87805,124.87805 -68.97015,0 -124.87805,-55.90791 -124.87805,-124.87805 0,-68.97015 55.9079,-124.87805 124.87805,-124.87805 z m 0,49.95122 c -13.83649,0 -24.97561,11.68858 -24.97561,26.14946 v 97.55473 c 0,14.46088 11.13912,26.14947 24.97561,26.14947 13.83649,0 24.97561,-11.68859 24.97561,-26.14947 v -97.55473 c 0,-14.46088 -11.13912,-26.14946 -24.97561,-26.14946 z"
       id="path6"
       style="stroke-width:12.4878" />
    <path
       fill="#ffffff"
       opacity="0.2"
       d="M 249.7561,0 A 249.7561,249.7561 0 0 0 0,249.7561 249.7561,249.7561 0 0 0 0.2684878,257.024 249.7561,249.7561 0 0 1 249.74985,12.487805 249.7561,249.7561 0 0 1 499.24371,254.976 249.7561,249.7561 0 0 0 499.50595,249.7561 249.7561,249.7561 0 0 0 249.74985,0 Z"
       id="path8"
       style="stroke-width:12.4878" />
    <path
       opacity="0.2"
       d="M 499.24995,254.976 A 249.7561,249.7561 0 0 1 249.7561,499.5122 249.7561,249.7561 0 0 1 0.2747317,257.024 249.7561,249.7561 0 0 0 0,262.2439 249.7561,249.7561 0 0 0 249.7561,512 249.7561,249.7561 0 0 0 499.5122,262.2439 249.7561,249.7561 0 0 0 499.24995,254.976 Z"
       id="path10"
       style="stroke-width:12.4878" />
  </g>
</svg>
