<?xml version="1.0" encoding="UTF-8" standalone="no"?>
<svg
   xmlns:dc="http://purl.org/dc/elements/1.1/"
   xmlns:cc="http://creativecommons.org/ns#"
   xmlns:rdf="http://www.w3.org/1999/02/22-rdf-syntax-ns#"
   xmlns:svg="http://www.w3.org/2000/svg"
   xmlns="http://www.w3.org/2000/svg"
   xmlns:sodipodi="http://sodipodi.sourceforge.net/DTD/sodipodi-0.dtd"
   xmlns:inkscape="http://www.inkscape.org/namespaces/inkscape"
   inkscape:version="1.0 (4035a4fb49, 2020-05-01)"
   sodipodi:docname="system-reboot.svg"
   id="svg12"
   version="1"
   height="512"
   width="512">
  <metadata
     id="metadata18">
    <rdf:RDF>
      <cc:Work
         rdf:about="">
        <dc:format>image/svg+xml</dc:format>
        <dc:type
           rdf:resource="http://purl.org/dc/dcmitype/StillImage" />
        <dc:title></dc:title>
      </cc:Work>
    </rdf:RDF>
  </metadata>
  <defs
     id="defs16" />
  <sodipodi:namedview
     inkscape:current-layer="svg12"
     inkscape:window-maximized="0"
     inkscape:window-y="30"
     inkscape:window-x="2"
     inkscape:cy="211.47953"
     inkscape:cx="234.84153"
     inkscape:zoom="0.76264759"
     showgrid="false"
     id="namedview14"
     inkscape:window-height="1046"
     inkscape:window-width="1914"
     inkscape:pageshadow="2"
     inkscape:pageopacity="0"
     guidetolerance="10"
     gridtolerance="10"
     objecttolerance="10"
     borderopacity="1"
     bordercolor="#666666"
     pagecolor="#ffffff" />
  <g
     transform="matrix(12.487805,0,0,12.487805,-43.70732,-49.95122)"
     id="g848">
    <circle
       fill="#eac046"
       cx="24"
       cy="24"
       r="20"
       id="circle2" />
    <path
       fill-rule="evenodd"
       opacity="0.2"
       d="m 21,9 v 3.375 C 15.27,13.73 11,18.855 11,25 11,32.18 16.82,38 24,38 30.316,38 35.581,33.495 36.755,27.523 37,25 34,25 33.728,27.326 32.68,31.727 28.722,35 24,35 18.477,35 14,30.523 14,25 c 0,-4.4763 2.9445,-8.2596 7,-9.5352 v 3.535 l 6,-5 z"
       id="path4" />
    <path
       fill="#ffffff"
       fill-rule="evenodd"
       d="m 21,8 v 3.375 C 15.27,12.73 11,17.855 11,24 11,31.18 16.82,37 24,37 30.316,37 35.581,32.495 36.755,26.523 37,24 34,24 33.728,26.326 32.68,30.727 28.722,34 24,34 18.477,34 14,29.523 14,24 c 0,-4.4763 2.9445,-8.2596 7,-9.5352 v 3.535 l 6,-5 z"
       id="path6" />
    <path
       fill="#ffffff"
       opacity="0.2"
       d="M 24,4 A 20,20 0 0 0 4,24 20,20 0 0 0 4.0215,24.582 20,20 0 0 1 23.9995,5 20,20 0 0 1 43.9785,24.418 20,20 0 0 0 43.9995,24 a 20,20 0 0 0 -20,-20 z"
       id="path8" />
    <path
       opacity="0.2"
       d="M 43.979,24.418 A 20,20 0 0 1 24,44 20,20 0 0 1 4.022,24.582 20,20 0 0 0 4,25 20,20 0 0 0 24,45 20,20 0 0 0 44,25 20,20 0 0 0 43.979,24.418 Z"
       id="path10" />
  </g>
</svg>
