<?xml version="1.0" encoding="UTF-8" standalone="no"?>
<svg
   xmlns:dc="http://purl.org/dc/elements/1.1/"
   xmlns:cc="http://creativecommons.org/ns#"
   xmlns:rdf="http://www.w3.org/1999/02/22-rdf-syntax-ns#"
   xmlns:svg="http://www.w3.org/2000/svg"
   xmlns="http://www.w3.org/2000/svg"
   xmlns:sodipodi="http://sodipodi.sourceforge.net/DTD/sodipodi-0.dtd"
   xmlns:inkscape="http://www.inkscape.org/namespaces/inkscape"
   sodipodi:docname="floating.svg"
   inkscape:version="1.0 (4035a4fb49, 2020-05-01)"
   inkscape:export-ydpi="96"
   inkscape:export-xdpi="96"
   inkscape:export-filename="/home/hisham/.config/awesome/themes/layouts/floating.png"
   id="svg8"
   version="1.1"
   viewBox="0 0 135.46666 135.46667"
   height="512"
   width="512">
  <defs
     id="defs2" />
  <sodipodi:namedview
     inkscape:window-maximized="0"
     inkscape:window-y="34"
     inkscape:window-x="6"
     inkscape:window-height="1038"
     inkscape:window-width="1906"
     units="px"
     showgrid="false"
     inkscape:document-rotation="0"
     inkscape:current-layer="layer1"
     inkscape:document-units="mm"
     inkscape:cy="255.99999"
     inkscape:cx="255.99999"
     inkscape:zoom="1"
     inkscape:pageshadow="2"
     inkscape:pageopacity="0"
     borderopacity="1.0"
     bordercolor="#666666"
     pagecolor="#b2a2ff"
     id="base" />
  <metadata
     id="metadata5">
    <rdf:RDF>
      <cc:Work
         rdf:about="">
        <dc:format>image/svg+xml</dc:format>
        <dc:type
           rdf:resource="http://purl.org/dc/dcmitype/StillImage" />
        <dc:title></dc:title>
      </cc:Work>
    </rdf:RDF>
  </metadata>
  <g
     id="layer1"
     inkscape:groupmode="layer"
     inkscape:label="Layer 1">
    <rect
       y="0"
       x="1.7763568e-15"
       height="135.46666"
       width="135.46666"
       id="rect10"
       style="opacity:1;fill:#ffffff;fill-opacity:1;fill-rule:evenodd;stroke:none;stroke-width:0.348043" />
    <path
       transform="scale(0.26458333)"
       d="M 82.380859 31 C 53.916218 31 31 53.916218 31 82.380859 L 31 429.61914 C 31 458.08378 53.916218 481 82.380859 481 L 429.61914 481 C 458.08378 481 481 458.08378 481 429.61914 L 481 82.380859 C 481 53.916218 458.08378 31 429.61914 31 L 82.380859 31 z M 288.93945 71 L 393.06055 71 C 419.61864 71 441 92.381318 441 118.93945 L 441 223.06055 C 441 249.61868 419.61864 271 393.06055 271 L 341 271 L 341 323.06055 C 341 349.61868 319.61868 371 293.06055 371 L 188.93945 371 C 162.38132 371 141 349.61868 141 323.06055 L 141 218.93945 C 141 192.38132 162.38132 171 188.93945 171 L 241 171 L 241 118.93945 C 241 92.381318 262.38132 71 288.93945 71 z "
       style="opacity:1;fill:#000000;fill-opacity:1;stroke:none;stroke-width:6.64603"
       id="rect1088" />
  </g>
</svg>
