<?xml version="1.0" encoding="UTF-8" standalone="no"?>
<svg
   xmlns:dc="http://purl.org/dc/elements/1.1/"
   xmlns:cc="http://creativecommons.org/ns#"
   xmlns:rdf="http://www.w3.org/1999/02/22-rdf-syntax-ns#"
   xmlns:svg="http://www.w3.org/2000/svg"
   xmlns="http://www.w3.org/2000/svg"
   xmlns:sodipodi="http://sodipodi.sourceforge.net/DTD/sodipodi-0.dtd"
   xmlns:inkscape="http://www.inkscape.org/namespaces/inkscape"
   sodipodi:docname="fullscreenw.svg"
   inkscape:version="1.0 (4035a4fb49, 2020-05-01)"
   inkscape:export-ydpi="96"
   inkscape:export-xdpi="96"
   inkscape:export-filename="/home/hisham/.config/awesome/themes/layouts/fullscreenw.png"
   id="svg8"
   version="1.1"
   viewBox="0 0 135.46666 135.46667"
   height="512"
   width="512">
  <defs
     id="defs2" />
  <sodipodi:namedview
     inkscape:window-maximized="0"
     inkscape:window-y="34"
     inkscape:window-x="6"
     inkscape:window-height="1038"
     inkscape:window-width="1906"
     units="px"
     showgrid="false"
     inkscape:document-rotation="0"
     inkscape:current-layer="layer1"
     inkscape:document-units="mm"
     inkscape:cy="255.99999"
     inkscape:cx="255.99999"
     inkscape:zoom="1.6054688"
     inkscape:pageshadow="2"
     inkscape:pageopacity="0"
     borderopacity="1.0"
     bordercolor="#666666"
     pagecolor="#b2a2ff"
     id="base" />
  <metadata
     id="metadata5">
    <rdf:RDF>
      <cc:Work
         rdf:about="">
        <dc:format>image/svg+xml</dc:format>
        <dc:type
           rdf:resource="http://purl.org/dc/dcmitype/StillImage" />
        <dc:title></dc:title>
      </cc:Work>
    </rdf:RDF>
  </metadata>
  <g
     id="layer1"
     inkscape:groupmode="layer"
     inkscape:label="Layer 1">
    <rect
       y="0"
       x="0"
       height="135.46666"
       width="135.46666"
       id="rect10"
       style="opacity:1;fill:#000000;fill-rule:evenodd;stroke-width:0.348043;stroke:none;fill-opacity:1" />
    <path
       transform="scale(0.26458333)"
       d="M 66.523438 31 C 46.843528 31 31 46.843528 31 66.523438 L 31 445.47656 C 31 465.15649 46.843528 481 66.523438 481 L 445.47656 481 C 465.15645 481 481 465.15649 481 445.47656 L 481 66.523438 C 481 46.843528 465.15645 31 445.47656 31 L 66.523438 31 z M 111 111 L 239 111 L 111 239 L 111 111 z M 272.89844 111 L 400.89844 111 L 400.89844 239 L 272.89844 111 z M 400.87695 272.8418 L 400.87695 400.8418 L 272.87695 400.8418 L 400.87695 272.8418 z M 111.03711 272.96484 L 239.03711 400.96484 L 111.03711 400.96484 L 111.03711 272.96484 z "
       style="opacity:1;fill:#ffffff;fill-opacity:1;fill-rule:evenodd;stroke:none;stroke-width:1.15614"
       id="rect835" />
  </g>
</svg>
